<svg width="1472" height="432" viewBox="0 0 1472 432" fill="none" xmlns="http://www.w3.org/2000/svg">
<rect width="1472" height="432" fill="#FFFBE6"/>
<rect x="560" y="48" width="320" height="336" rx="6" fill="#050505" fill-opacity="0.3" stroke="#050505" stroke-opacity="0.3" stroke-width="4" stroke-linecap="round"/>
<rect x="592" y="64" width="48" height="64" rx="3" fill="#FFFBE6"/>
<rect x="592" y="64" width="48" height="64" rx="3" fill="#EA9010" fill-opacity="0.3"/>
<rect x="592" y="64" width="48" height="64" rx="3" stroke="#EA9010" stroke-width="4" stroke-linecap="round"/>
<path d="M607.584 102H605.72L609.908 90.3636H611.936L616.124 102H614.26L610.97 92.4773H610.879L607.584 102ZM607.896 97.4432H613.942V98.9205H607.896V97.4432ZM621.52 102.193C620.622 102.189 619.855 101.953 619.219 101.483C618.582 101.013 618.096 100.33 617.759 99.4318C617.421 98.5341 617.253 97.4527 617.253 96.1875C617.253 94.9261 617.421 93.8485 617.759 92.9545C618.1 92.0606 618.588 91.3788 619.225 90.9091C619.865 90.4394 620.63 90.2045 621.52 90.2045C622.41 90.2045 623.173 90.4413 623.81 90.9148C624.446 91.3845 624.933 92.0663 625.27 92.9602C625.611 93.8504 625.781 94.9261 625.781 96.1875C625.781 97.4564 625.613 98.5398 625.276 99.4375C624.939 100.331 624.452 101.015 623.815 101.489C623.179 101.958 622.414 102.193 621.52 102.193ZM621.52 100.676C622.308 100.676 622.923 100.292 623.367 99.5227C623.814 98.7538 624.037 97.642 624.037 96.1875C624.037 95.2216 623.935 94.4053 623.73 93.7386C623.529 93.0682 623.24 92.5606 622.861 92.2159C622.486 91.8674 622.039 91.6932 621.52 91.6932C620.736 91.6932 620.12 92.0795 619.673 92.8523C619.226 93.625 619.001 94.7367 618.997 96.1875C618.997 97.1572 619.098 97.9773 619.298 98.6477C619.503 99.3144 619.793 99.8201 620.168 100.165C620.543 100.506 620.993 100.676 621.52 100.676Z" fill="#050505"/>
<rect x="384" y="64" width="96" height="64" rx="6" fill="#FFFBE6"/>
<rect x="384" y="64" width="96" height="64" rx="6" fill="#EA9010" fill-opacity="0.3"/>
<rect x="384" y="64" width="96" height="64" rx="6" stroke="#EA9010" stroke-width="4" stroke-linecap="round"/>
<path d="M425.121 82.0398C425.011 81.6951 424.863 81.3864 424.677 81.1136C424.496 80.8371 424.278 80.6023 424.024 80.4091C423.77 80.2121 423.48 80.0625 423.155 79.9602C422.833 79.858 422.478 79.8068 422.092 79.8068C421.437 79.8068 420.846 79.9754 420.319 80.3125C419.793 80.6496 419.376 81.1439 419.069 81.7955C418.766 82.4432 418.615 83.2367 418.615 84.1761C418.615 85.1193 418.768 85.9167 419.075 86.5682C419.382 87.2197 419.802 87.714 420.336 88.0511C420.871 88.3883 421.478 88.5568 422.16 88.5568C422.793 88.5568 423.344 88.428 423.814 88.1705C424.287 87.9129 424.653 87.5492 424.91 87.0795C425.172 86.6061 425.302 86.0492 425.302 85.4091L425.757 85.4943H422.427V84.0455H427.001V85.3693C427.001 86.3466 426.793 87.1951 426.376 87.9148C425.963 88.6307 425.391 89.1837 424.66 89.5739C423.933 89.964 423.1 90.1591 422.16 90.1591C421.107 90.1591 420.183 89.9167 419.388 89.4318C418.596 88.947 417.978 88.2595 417.535 87.3693C417.092 86.4754 416.871 85.4148 416.871 84.1875C416.871 83.2595 416.999 82.4261 417.257 81.6875C417.514 80.9489 417.876 80.322 418.342 79.8068C418.812 79.2879 419.363 78.892 419.996 78.6193C420.632 78.3428 421.327 78.2045 422.081 78.2045C422.71 78.2045 423.295 78.2973 423.836 78.483C424.382 78.6686 424.867 78.9318 425.291 79.2727C425.719 79.6136 426.073 80.0189 426.353 80.4886C426.634 80.9545 426.823 81.4716 426.922 82.0398H425.121ZM435.401 81.4205C435.34 80.8826 435.09 80.4659 434.651 80.1705C434.211 79.8712 433.658 79.7216 432.991 79.7216C432.514 79.7216 432.101 79.7973 431.753 79.9489C431.404 80.0966 431.133 80.3011 430.94 80.5625C430.751 80.8201 430.656 81.1136 430.656 81.4432C430.656 81.7197 430.721 81.9583 430.849 82.1591C430.982 82.3598 431.154 82.5284 431.366 82.6648C431.582 82.7973 431.813 82.9091 432.06 83C432.306 83.0871 432.543 83.1591 432.77 83.2159L433.906 83.5114C434.277 83.6023 434.658 83.7254 435.048 83.8807C435.438 84.036 435.8 84.2405 436.133 84.4943C436.467 84.7481 436.736 85.0625 436.94 85.4375C437.149 85.8125 437.253 86.2614 437.253 86.7841C437.253 87.4432 437.082 88.0284 436.741 88.5398C436.404 89.0511 435.914 89.4545 435.27 89.75C434.63 90.0455 433.855 90.1932 432.946 90.1932C432.075 90.1932 431.321 90.0549 430.685 89.7784C430.048 89.5019 429.55 89.1098 429.19 88.6023C428.83 88.0909 428.632 87.4848 428.594 86.7841H430.355C430.389 87.2045 430.526 87.5549 430.764 87.8352C431.007 88.1117 431.315 88.3182 431.69 88.4545C432.069 88.5871 432.484 88.6534 432.935 88.6534C433.431 88.6534 433.872 88.5758 434.258 88.4205C434.649 88.2614 434.955 88.0417 435.179 87.7614C435.402 87.4773 435.514 87.1458 435.514 86.767C435.514 86.4223 435.416 86.1402 435.219 85.9205C435.026 85.7008 434.762 85.5189 434.429 85.375C434.099 85.2311 433.726 85.1042 433.31 84.9943L431.935 84.6193C431.003 84.3655 430.264 83.9924 429.719 83.5C429.177 83.0076 428.906 82.3561 428.906 81.5455C428.906 80.875 429.088 80.2898 429.452 79.7898C429.815 79.2898 430.308 78.9015 430.929 78.625C431.55 78.3447 432.251 78.2045 433.031 78.2045C433.819 78.2045 434.514 78.3428 435.116 78.6193C435.722 78.8958 436.2 79.2765 436.548 79.7614C436.897 80.2424 437.079 80.7955 437.094 81.4205H435.401ZM439.175 90V78.3636H443.323C444.224 78.3636 444.972 78.5189 445.567 78.8295C446.165 79.1402 446.612 79.5701 446.908 80.1193C447.203 80.6648 447.351 81.2955 447.351 82.0114C447.351 82.7235 447.201 83.3504 446.902 83.892C446.607 84.4299 446.16 84.8485 445.561 85.1477C444.966 85.447 444.218 85.5966 443.317 85.5966H440.175V84.0852H443.158C443.726 84.0852 444.188 84.0038 444.544 83.8409C444.904 83.678 445.167 83.4413 445.334 83.1307C445.501 82.8201 445.584 82.447 445.584 82.0114C445.584 81.572 445.499 81.1913 445.328 80.8693C445.162 80.5473 444.898 80.3011 444.538 80.1307C444.182 79.9564 443.715 79.8693 443.135 79.8693H440.93V90H439.175ZM444.919 84.75L447.794 90H445.794L442.976 84.75H444.919ZM413.26 105.42C413.2 104.883 412.95 104.466 412.51 104.17C412.071 103.871 411.518 103.722 410.851 103.722C410.374 103.722 409.961 103.797 409.613 103.949C409.264 104.097 408.993 104.301 408.8 104.562C408.611 104.82 408.516 105.114 408.516 105.443C408.516 105.72 408.58 105.958 408.709 106.159C408.842 106.36 409.014 106.528 409.226 106.665C409.442 106.797 409.673 106.909 409.919 107C410.166 107.087 410.402 107.159 410.63 107.216L411.766 107.511C412.137 107.602 412.518 107.725 412.908 107.881C413.298 108.036 413.66 108.241 413.993 108.494C414.327 108.748 414.596 109.062 414.8 109.438C415.008 109.812 415.113 110.261 415.113 110.784C415.113 111.443 414.942 112.028 414.601 112.54C414.264 113.051 413.774 113.455 413.13 113.75C412.489 114.045 411.715 114.193 410.806 114.193C409.935 114.193 409.181 114.055 408.544 113.778C407.908 113.502 407.41 113.11 407.05 112.602C406.69 112.091 406.491 111.485 406.453 110.784H408.215C408.249 111.205 408.385 111.555 408.624 111.835C408.866 112.112 409.175 112.318 409.55 112.455C409.929 112.587 410.344 112.653 410.794 112.653C411.291 112.653 411.732 112.576 412.118 112.42C412.508 112.261 412.815 112.042 413.039 111.761C413.262 111.477 413.374 111.146 413.374 110.767C413.374 110.422 413.275 110.14 413.078 109.92C412.885 109.701 412.622 109.519 412.289 109.375C411.959 109.231 411.586 109.104 411.169 108.994L409.794 108.619C408.863 108.366 408.124 107.992 407.578 107.5C407.037 107.008 406.766 106.356 406.766 105.545C406.766 104.875 406.948 104.29 407.311 103.79C407.675 103.29 408.168 102.902 408.789 102.625C409.41 102.345 410.111 102.205 410.891 102.205C411.679 102.205 412.374 102.343 412.976 102.619C413.582 102.896 414.06 103.277 414.408 103.761C414.757 104.242 414.938 104.795 414.953 105.42H413.26ZM420.66 114.176C419.8 114.176 419.059 113.992 418.438 113.625C417.821 113.254 417.343 112.733 417.006 112.062C416.673 111.388 416.506 110.598 416.506 109.693C416.506 108.799 416.673 108.011 417.006 107.33C417.343 106.648 417.813 106.116 418.415 105.733C419.021 105.35 419.73 105.159 420.54 105.159C421.033 105.159 421.51 105.241 421.972 105.403C422.434 105.566 422.849 105.822 423.216 106.17C423.584 106.519 423.874 106.972 424.086 107.528C424.298 108.081 424.404 108.754 424.404 109.545V110.148H417.466V108.875H422.739C422.739 108.428 422.648 108.032 422.466 107.688C422.285 107.339 422.029 107.064 421.699 106.864C421.374 106.663 420.991 106.562 420.552 106.562C420.074 106.562 419.658 106.68 419.302 106.915C418.949 107.146 418.677 107.449 418.483 107.824C418.294 108.195 418.199 108.598 418.199 109.034V110.028C418.199 110.612 418.302 111.108 418.506 111.517C418.715 111.926 419.004 112.239 419.376 112.455C419.747 112.667 420.18 112.773 420.677 112.773C420.999 112.773 421.292 112.727 421.557 112.636C421.822 112.542 422.052 112.402 422.245 112.216C422.438 112.03 422.586 111.801 422.688 111.528L424.296 111.818C424.167 112.292 423.936 112.706 423.603 113.062C423.273 113.415 422.858 113.689 422.358 113.886C421.862 114.08 421.296 114.176 420.66 114.176ZM427.812 108.818V114H426.113V105.273H427.744V106.693H427.851C428.052 106.231 428.367 105.86 428.795 105.58C429.226 105.299 429.77 105.159 430.425 105.159C431.02 105.159 431.541 105.284 431.988 105.534C432.435 105.78 432.781 106.148 433.028 106.636C433.274 107.125 433.397 107.729 433.397 108.449V114H431.698V108.653C431.698 108.021 431.533 107.527 431.204 107.17C430.874 106.811 430.422 106.631 429.846 106.631C429.452 106.631 429.101 106.716 428.795 106.886C428.492 107.057 428.251 107.307 428.073 107.636C427.899 107.962 427.812 108.356 427.812 108.818ZM442.039 107.403L440.499 107.676C440.435 107.479 440.333 107.292 440.193 107.114C440.056 106.936 439.871 106.79 439.636 106.676C439.401 106.562 439.107 106.506 438.755 106.506C438.274 106.506 437.872 106.614 437.55 106.83C437.229 107.042 437.068 107.316 437.068 107.653C437.068 107.945 437.175 108.18 437.391 108.358C437.607 108.536 437.956 108.682 438.437 108.795L439.823 109.114C440.626 109.299 441.225 109.585 441.619 109.972C442.013 110.358 442.21 110.86 442.21 111.477C442.21 112 442.058 112.466 441.755 112.875C441.456 113.28 441.037 113.598 440.499 113.83C439.965 114.061 439.346 114.176 438.641 114.176C437.664 114.176 436.867 113.968 436.249 113.551C435.632 113.131 435.253 112.534 435.113 111.761L436.755 111.511C436.857 111.939 437.068 112.263 437.386 112.483C437.704 112.699 438.119 112.807 438.63 112.807C439.187 112.807 439.632 112.691 439.965 112.46C440.299 112.225 440.465 111.939 440.465 111.602C440.465 111.33 440.363 111.1 440.158 110.915C439.958 110.729 439.649 110.589 439.232 110.494L437.755 110.17C436.941 109.985 436.338 109.689 435.948 109.284C435.562 108.879 435.369 108.366 435.369 107.744C435.369 107.229 435.513 106.778 435.8 106.392C436.088 106.006 436.486 105.705 436.994 105.489C437.501 105.269 438.083 105.159 438.738 105.159C439.681 105.159 440.424 105.364 440.965 105.773C441.507 106.178 441.865 106.722 442.039 107.403ZM447.578 114.176C446.759 114.176 446.045 113.989 445.436 113.614C444.826 113.239 444.352 112.714 444.015 112.04C443.678 111.366 443.509 110.578 443.509 109.676C443.509 108.771 443.678 107.979 444.015 107.301C444.352 106.623 444.826 106.097 445.436 105.722C446.045 105.347 446.759 105.159 447.578 105.159C448.396 105.159 449.11 105.347 449.72 105.722C450.33 106.097 450.803 106.623 451.14 107.301C451.477 107.979 451.646 108.771 451.646 109.676C451.646 110.578 451.477 111.366 451.14 112.04C450.803 112.714 450.33 113.239 449.72 113.614C449.11 113.989 448.396 114.176 447.578 114.176ZM447.583 112.75C448.114 112.75 448.553 112.61 448.901 112.33C449.25 112.049 449.508 111.676 449.674 111.21C449.845 110.744 449.93 110.231 449.93 109.67C449.93 109.114 449.845 108.602 449.674 108.136C449.508 107.667 449.25 107.29 448.901 107.006C448.553 106.722 448.114 106.58 447.583 106.58C447.049 106.58 446.606 106.722 446.254 107.006C445.905 107.29 445.646 107.667 445.475 108.136C445.309 108.602 445.225 109.114 445.225 109.67C445.225 110.231 445.309 110.744 445.475 111.21C445.646 111.676 445.905 112.049 446.254 112.33C446.606 112.61 447.049 112.75 447.583 112.75ZM453.366 114V105.273H455.008V106.659H455.099C455.258 106.189 455.538 105.82 455.94 105.551C456.345 105.278 456.804 105.142 457.315 105.142C457.421 105.142 457.546 105.146 457.69 105.153C457.838 105.161 457.953 105.17 458.037 105.182V106.807C457.968 106.788 457.847 106.767 457.673 106.744C457.499 106.718 457.324 106.705 457.15 106.705C456.749 106.705 456.391 106.79 456.076 106.96C455.766 107.127 455.52 107.36 455.338 107.659C455.156 107.955 455.065 108.292 455.065 108.67V114H453.366Z" fill="#050505"/>
<path d="M415.967 93.1818H448.033V94.2727H415.967V93.1818ZM405.635 117.182H458.372V118.273H405.635V117.182Z" fill="#050505"/>
<a href="https://www.seeedstudio.com/Grove-GSR-sensor-p-1614.html">
<rect fill="black" fill-opacity="0" x="23.9671" y="2.31818" width="36.3044" height="19.3636"/>
</a>
<a href="https://www.seeedstudio.com/Grove-GSR-sensor-p-1614.html">
<rect fill="black" fill-opacity="0" x="13.6353" y="26.3182" width="52.7365" height="19.3636"/>
</a>
<rect x="80" y="240" width="128" height="128" rx="6" fill="#FFFBE6"/>
<rect x="80" y="240" width="128" height="128" rx="6" fill="#D64933" fill-opacity="0.3"/>
<rect x="80" y="240" width="128" height="128" rx="6" stroke="#D64933" stroke-width="4" stroke-linecap="round"/>
<path d="M107.25 298V286.364H109.006V291.42H114.807V286.364H116.568V298H114.807V292.926H109.006V298H107.25ZM122.574 298.176C121.714 298.176 120.974 297.992 120.353 297.625C119.735 297.254 119.258 296.733 118.921 296.062C118.587 295.388 118.421 294.598 118.421 293.693C118.421 292.799 118.587 292.011 118.921 291.33C119.258 290.648 119.728 290.116 120.33 289.733C120.936 289.35 121.644 289.159 122.455 289.159C122.947 289.159 123.424 289.241 123.887 289.403C124.349 289.566 124.763 289.822 125.131 290.17C125.498 290.519 125.788 290.972 126 291.528C126.212 292.081 126.318 292.754 126.318 293.545V294.148H119.381V292.875H124.654C124.654 292.428 124.563 292.032 124.381 291.688C124.199 291.339 123.943 291.064 123.614 290.864C123.288 290.663 122.906 290.562 122.466 290.562C121.989 290.562 121.572 290.68 121.216 290.915C120.864 291.146 120.591 291.449 120.398 291.824C120.209 292.195 120.114 292.598 120.114 293.034V294.028C120.114 294.612 120.216 295.108 120.421 295.517C120.629 295.926 120.919 296.239 121.29 296.455C121.661 296.667 122.095 296.773 122.591 296.773C122.913 296.773 123.207 296.727 123.472 296.636C123.737 296.542 123.966 296.402 124.159 296.216C124.353 296.03 124.5 295.801 124.603 295.528L126.21 295.818C126.082 296.292 125.851 296.706 125.517 297.062C125.188 297.415 124.773 297.689 124.273 297.886C123.777 298.08 123.21 298.176 122.574 298.176ZM130.567 298.193C130.014 298.193 129.514 298.091 129.067 297.886C128.62 297.678 128.266 297.377 128.005 296.983C127.747 296.589 127.618 296.106 127.618 295.534C127.618 295.042 127.713 294.636 127.902 294.318C128.092 294 128.347 293.748 128.669 293.562C128.991 293.377 129.351 293.237 129.749 293.142C130.147 293.047 130.552 292.975 130.965 292.926C131.488 292.866 131.912 292.816 132.238 292.778C132.563 292.737 132.8 292.67 132.948 292.58C133.096 292.489 133.169 292.341 133.169 292.136V292.097C133.169 291.6 133.029 291.216 132.749 290.943C132.472 290.67 132.06 290.534 131.51 290.534C130.938 290.534 130.488 290.661 130.158 290.915C129.832 291.165 129.607 291.443 129.482 291.75L127.885 291.386C128.075 290.856 128.351 290.428 128.715 290.102C129.082 289.773 129.505 289.534 129.982 289.386C130.459 289.235 130.961 289.159 131.488 289.159C131.836 289.159 132.205 289.201 132.596 289.284C132.989 289.364 133.357 289.511 133.698 289.727C134.043 289.943 134.325 290.252 134.544 290.653C134.764 291.051 134.874 291.568 134.874 292.205V298H133.215V296.807H133.147C133.037 297.027 132.872 297.242 132.652 297.455C132.433 297.667 132.15 297.843 131.806 297.983C131.461 298.123 131.048 298.193 130.567 298.193ZM130.936 296.83C131.406 296.83 131.808 296.737 132.141 296.551C132.478 296.366 132.734 296.123 132.908 295.824C133.086 295.521 133.175 295.197 133.175 294.852V293.727C133.114 293.788 132.997 293.845 132.823 293.898C132.652 293.947 132.457 293.991 132.238 294.028C132.018 294.062 131.804 294.095 131.596 294.125C131.387 294.152 131.213 294.174 131.073 294.193C130.743 294.235 130.442 294.305 130.169 294.403C129.9 294.502 129.685 294.644 129.522 294.83C129.363 295.011 129.283 295.254 129.283 295.557C129.283 295.977 129.438 296.295 129.749 296.511C130.06 296.723 130.455 296.83 130.936 296.83ZM136.961 298V289.273H138.603V290.659H138.694C138.853 290.189 139.133 289.82 139.535 289.551C139.94 289.278 140.398 289.142 140.91 289.142C141.016 289.142 141.141 289.146 141.285 289.153C141.432 289.161 141.548 289.17 141.631 289.182V290.807C141.563 290.788 141.442 290.767 141.268 290.744C141.093 290.718 140.919 290.705 140.745 290.705C140.343 290.705 139.985 290.79 139.671 290.96C139.36 291.127 139.114 291.36 138.932 291.659C138.751 291.955 138.66 292.292 138.66 292.67V298H136.961ZM147.515 289.273V290.636H142.748V289.273H147.515ZM144.026 287.182H145.725V295.438C145.725 295.767 145.774 296.015 145.873 296.182C145.971 296.345 146.098 296.456 146.253 296.517C146.413 296.574 146.585 296.602 146.771 296.602C146.907 296.602 147.026 296.593 147.128 296.574C147.231 296.555 147.31 296.54 147.367 296.528L147.674 297.932C147.575 297.97 147.435 298.008 147.253 298.045C147.072 298.087 146.844 298.11 146.572 298.114C146.125 298.121 145.708 298.042 145.322 297.875C144.935 297.708 144.623 297.451 144.384 297.102C144.146 296.754 144.026 296.316 144.026 295.79V287.182ZM149.542 298V286.364H151.241V290.688H151.343C151.442 290.506 151.584 290.295 151.769 290.057C151.955 289.818 152.212 289.61 152.542 289.432C152.872 289.25 153.307 289.159 153.849 289.159C154.553 289.159 155.182 289.337 155.735 289.693C156.288 290.049 156.722 290.562 157.036 291.233C157.354 291.903 157.514 292.71 157.514 293.653C157.514 294.597 157.356 295.405 157.042 296.08C156.728 296.75 156.296 297.267 155.747 297.631C155.197 297.991 154.57 298.17 153.866 298.17C153.336 298.17 152.902 298.081 152.565 297.903C152.231 297.725 151.97 297.517 151.781 297.278C151.591 297.04 151.445 296.828 151.343 296.642H151.201V298H149.542ZM151.207 293.636C151.207 294.25 151.296 294.788 151.474 295.25C151.652 295.712 151.909 296.074 152.247 296.335C152.584 296.593 152.997 296.722 153.485 296.722C153.993 296.722 154.417 296.587 154.758 296.318C155.099 296.045 155.356 295.676 155.531 295.21C155.709 294.744 155.798 294.22 155.798 293.636C155.798 293.061 155.711 292.544 155.536 292.085C155.366 291.627 155.108 291.265 154.764 291C154.423 290.735 153.997 290.602 153.485 290.602C152.993 290.602 152.576 290.729 152.235 290.983C151.898 291.237 151.642 291.591 151.468 292.045C151.294 292.5 151.207 293.03 151.207 293.636ZM163.007 298.176C162.147 298.176 161.406 297.992 160.785 297.625C160.168 297.254 159.69 296.733 159.353 296.062C159.02 295.388 158.853 294.598 158.853 293.693C158.853 292.799 159.02 292.011 159.353 291.33C159.69 290.648 160.16 290.116 160.762 289.733C161.368 289.35 162.077 289.159 162.887 289.159C163.38 289.159 163.857 289.241 164.319 289.403C164.781 289.566 165.196 289.822 165.563 290.17C165.931 290.519 166.221 290.972 166.433 291.528C166.645 292.081 166.751 292.754 166.751 293.545V294.148H159.813V292.875H165.086C165.086 292.428 164.995 292.032 164.813 291.688C164.632 291.339 164.376 291.064 164.046 290.864C163.721 290.663 163.338 290.562 162.899 290.562C162.421 290.562 162.005 290.68 161.649 290.915C161.296 291.146 161.024 291.449 160.83 291.824C160.641 292.195 160.546 292.598 160.546 293.034V294.028C160.546 294.612 160.649 295.108 160.853 295.517C161.062 295.926 161.351 296.239 161.723 296.455C162.094 296.667 162.527 296.773 163.024 296.773C163.346 296.773 163.639 296.727 163.904 296.636C164.169 296.542 164.399 296.402 164.592 296.216C164.785 296.03 164.933 295.801 165.035 295.528L166.643 295.818C166.514 296.292 166.283 296.706 165.95 297.062C165.62 297.415 165.205 297.689 164.705 297.886C164.209 298.08 163.643 298.176 163.007 298.176ZM171 298.193C170.447 298.193 169.947 298.091 169.5 297.886C169.053 297.678 168.698 297.377 168.437 296.983C168.18 296.589 168.051 296.106 168.051 295.534C168.051 295.042 168.145 294.636 168.335 294.318C168.524 294 168.78 293.748 169.102 293.562C169.424 293.377 169.784 293.237 170.181 293.142C170.579 293.047 170.984 292.975 171.397 292.926C171.92 292.866 172.344 292.816 172.67 292.778C172.996 292.737 173.233 292.67 173.38 292.58C173.528 292.489 173.602 292.341 173.602 292.136V292.097C173.602 291.6 173.462 291.216 173.181 290.943C172.905 290.67 172.492 290.534 171.943 290.534C171.371 290.534 170.92 290.661 170.591 290.915C170.265 291.165 170.039 291.443 169.914 291.75L168.318 291.386C168.507 290.856 168.784 290.428 169.147 290.102C169.515 289.773 169.937 289.534 170.414 289.386C170.892 289.235 171.394 289.159 171.92 289.159C172.269 289.159 172.638 289.201 173.028 289.284C173.422 289.364 173.789 289.511 174.13 289.727C174.475 289.943 174.757 290.252 174.977 290.653C175.197 291.051 175.306 291.568 175.306 292.205V298H173.647V296.807H173.579C173.469 297.027 173.305 297.242 173.085 297.455C172.865 297.667 172.583 297.843 172.238 297.983C171.894 298.123 171.481 298.193 171 298.193ZM171.369 296.83C171.839 296.83 172.24 296.737 172.573 296.551C172.911 296.366 173.166 296.123 173.341 295.824C173.519 295.521 173.608 295.197 173.608 294.852V293.727C173.547 293.788 173.43 293.845 173.255 293.898C173.085 293.947 172.89 293.991 172.67 294.028C172.45 294.062 172.236 294.095 172.028 294.125C171.82 294.152 171.645 294.174 171.505 294.193C171.176 294.235 170.875 294.305 170.602 294.403C170.333 294.502 170.117 294.644 169.954 294.83C169.795 295.011 169.716 295.254 169.716 295.557C169.716 295.977 169.871 296.295 170.181 296.511C170.492 296.723 170.888 296.83 171.369 296.83ZM181.467 289.273V290.636H176.7V289.273H181.467ZM177.978 287.182H179.677V295.438C179.677 295.767 179.727 296.015 179.825 296.182C179.924 296.345 180.05 296.456 180.206 296.517C180.365 296.574 180.537 296.602 180.723 296.602C180.859 296.602 180.978 296.593 181.081 296.574C181.183 296.555 181.263 296.54 181.319 296.528L181.626 297.932C181.528 297.97 181.388 298.008 181.206 298.045C181.024 298.087 180.797 298.11 180.524 298.114C180.077 298.121 179.66 298.042 179.274 297.875C178.888 297.708 178.575 297.451 178.336 297.102C178.098 296.754 177.978 296.316 177.978 295.79V287.182ZM126.177 315.403L124.637 315.676C124.572 315.479 124.47 315.292 124.33 315.114C124.194 314.936 124.008 314.79 123.773 314.676C123.538 314.562 123.245 314.506 122.892 314.506C122.411 314.506 122.01 314.614 121.688 314.83C121.366 315.042 121.205 315.316 121.205 315.653C121.205 315.945 121.313 316.18 121.529 316.358C121.745 316.536 122.093 316.682 122.574 316.795L123.961 317.114C124.764 317.299 125.362 317.585 125.756 317.972C126.15 318.358 126.347 318.86 126.347 319.477C126.347 320 126.195 320.466 125.892 320.875C125.593 321.28 125.175 321.598 124.637 321.83C124.103 322.061 123.483 322.176 122.779 322.176C121.802 322.176 121.004 321.968 120.387 321.551C119.769 321.131 119.391 320.534 119.25 319.761L120.892 319.511C120.995 319.939 121.205 320.263 121.523 320.483C121.841 320.699 122.256 320.807 122.767 320.807C123.324 320.807 123.769 320.691 124.103 320.46C124.436 320.225 124.603 319.939 124.603 319.602C124.603 319.33 124.5 319.1 124.296 318.915C124.095 318.729 123.786 318.589 123.37 318.494L121.892 318.17C121.078 317.985 120.476 317.689 120.086 317.284C119.699 316.879 119.506 316.366 119.506 315.744C119.506 315.229 119.65 314.778 119.938 314.392C120.226 314.006 120.623 313.705 121.131 313.489C121.639 313.269 122.22 313.159 122.875 313.159C123.819 313.159 124.561 313.364 125.103 313.773C125.644 314.178 126.002 314.722 126.177 315.403ZM131.8 322.176C130.94 322.176 130.2 321.992 129.579 321.625C128.961 321.254 128.484 320.733 128.147 320.062C127.813 319.388 127.647 318.598 127.647 317.693C127.647 316.799 127.813 316.011 128.147 315.33C128.484 314.648 128.954 314.116 129.556 313.733C130.162 313.35 130.87 313.159 131.681 313.159C132.173 313.159 132.651 313.241 133.113 313.403C133.575 313.566 133.99 313.822 134.357 314.17C134.724 314.519 135.014 314.972 135.226 315.528C135.438 316.081 135.545 316.754 135.545 317.545V318.148H128.607V316.875H133.88C133.88 316.428 133.789 316.032 133.607 315.688C133.425 315.339 133.17 315.064 132.84 314.864C132.514 314.663 132.132 314.562 131.692 314.562C131.215 314.562 130.798 314.68 130.442 314.915C130.09 315.146 129.817 315.449 129.624 315.824C129.435 316.195 129.34 316.598 129.34 317.034V318.028C129.34 318.612 129.442 319.108 129.647 319.517C129.855 319.926 130.145 320.239 130.516 320.455C130.887 320.667 131.321 320.773 131.817 320.773C132.139 320.773 132.433 320.727 132.698 320.636C132.963 320.542 133.192 320.402 133.385 320.216C133.579 320.03 133.726 319.801 133.829 319.528L135.437 319.818C135.308 320.292 135.077 320.706 134.743 321.062C134.414 321.415 133.999 321.689 133.499 321.886C133.003 322.08 132.437 322.176 131.8 322.176ZM138.952 316.818V322H137.253V313.273H138.884V314.693H138.992C139.193 314.231 139.507 313.86 139.935 313.58C140.367 313.299 140.911 313.159 141.566 313.159C142.161 313.159 142.682 313.284 143.128 313.534C143.575 313.78 143.922 314.148 144.168 314.636C144.414 315.125 144.538 315.729 144.538 316.449V322H142.839V316.653C142.839 316.021 142.674 315.527 142.344 315.17C142.015 314.811 141.562 314.631 140.986 314.631C140.592 314.631 140.242 314.716 139.935 314.886C139.632 315.057 139.392 315.307 139.214 315.636C139.039 315.962 138.952 316.356 138.952 316.818ZM153.18 315.403L151.64 315.676C151.576 315.479 151.473 315.292 151.333 315.114C151.197 314.936 151.011 314.79 150.776 314.676C150.542 314.562 150.248 314.506 149.896 314.506C149.415 314.506 149.013 314.614 148.691 314.83C148.369 315.042 148.208 315.316 148.208 315.653C148.208 315.945 148.316 316.18 148.532 316.358C148.748 316.536 149.096 316.682 149.577 316.795L150.964 317.114C151.767 317.299 152.365 317.585 152.759 317.972C153.153 318.358 153.35 318.86 153.35 319.477C153.35 320 153.199 320.466 152.896 320.875C152.596 321.28 152.178 321.598 151.64 321.83C151.106 322.061 150.487 322.176 149.782 322.176C148.805 322.176 148.007 321.968 147.39 321.551C146.773 321.131 146.394 320.534 146.254 319.761L147.896 319.511C147.998 319.939 148.208 320.263 148.526 320.483C148.845 320.699 149.259 320.807 149.771 320.807C150.327 320.807 150.773 320.691 151.106 320.46C151.439 320.225 151.606 319.939 151.606 319.602C151.606 319.33 151.504 319.1 151.299 318.915C151.098 318.729 150.79 318.589 150.373 318.494L148.896 318.17C148.081 317.985 147.479 317.689 147.089 317.284C146.702 316.879 146.509 316.366 146.509 315.744C146.509 315.229 146.653 314.778 146.941 314.392C147.229 314.006 147.627 313.705 148.134 313.489C148.642 313.269 149.223 313.159 149.879 313.159C150.822 313.159 151.564 313.364 152.106 313.773C152.648 314.178 153.006 314.722 153.18 315.403ZM158.718 322.176C157.9 322.176 157.186 321.989 156.576 321.614C155.966 321.239 155.493 320.714 155.156 320.04C154.819 319.366 154.65 318.578 154.65 317.676C154.65 316.771 154.819 315.979 155.156 315.301C155.493 314.623 155.966 314.097 156.576 313.722C157.186 313.347 157.9 313.159 158.718 313.159C159.536 313.159 160.25 313.347 160.86 313.722C161.47 314.097 161.944 314.623 162.281 315.301C162.618 315.979 162.786 316.771 162.786 317.676C162.786 318.578 162.618 319.366 162.281 320.04C161.944 320.714 161.47 321.239 160.86 321.614C160.25 321.989 159.536 322.176 158.718 322.176ZM158.724 320.75C159.254 320.75 159.694 320.61 160.042 320.33C160.391 320.049 160.648 319.676 160.815 319.21C160.985 318.744 161.071 318.231 161.071 317.67C161.071 317.114 160.985 316.602 160.815 316.136C160.648 315.667 160.391 315.29 160.042 315.006C159.694 314.722 159.254 314.58 158.724 314.58C158.19 314.58 157.747 314.722 157.394 315.006C157.046 315.29 156.786 315.667 156.616 316.136C156.449 316.602 156.366 317.114 156.366 317.67C156.366 318.231 156.449 318.744 156.616 319.21C156.786 319.676 157.046 320.049 157.394 320.33C157.747 320.61 158.19 320.75 158.724 320.75ZM164.507 322V313.273H166.149V314.659H166.24C166.399 314.189 166.679 313.82 167.081 313.551C167.486 313.278 167.944 313.142 168.456 313.142C168.562 313.142 168.687 313.146 168.831 313.153C168.978 313.161 169.094 313.17 169.177 313.182V314.807C169.109 314.788 168.988 314.767 168.814 314.744C168.639 314.718 168.465 314.705 168.291 314.705C167.889 314.705 167.531 314.79 167.217 314.96C166.906 315.127 166.66 315.36 166.478 315.659C166.297 315.955 166.206 316.292 166.206 316.67V322H164.507Z" fill="#050505"/>
<path d="M105.972 301.182H182.028V302.273H105.972V301.182ZM118.495 325.182H169.512V326.273H118.495V325.182Z" fill="#050505"/>
<a href="https://www.amazon.com/Fielect-Heartbeat-Detector-Arduino-Detection/dp/B08HGRCZNZ">
<rect fill="black" fill-opacity="0" x="9.97169" y="2.31818" width="80.2953" height="19.3636"/>
</a>
<a href="https://www.amazon.com/Fielect-Heartbeat-Detector-Arduino-Detection/dp/B08HGRCZNZ">
<rect fill="black" fill-opacity="0" x="22.4947" y="26.3182" width="51.0177" height="19.3636"/>
</a>
<rect x="1232" y="160" width="160" height="120" rx="6" fill="#FFFBE6"/>
<rect x="1232" y="160" width="160" height="120" rx="6" fill="#FA8334" fill-opacity="0.3"/>
<rect x="1232" y="160" width="160" height="120" rx="6" stroke="#FA8334" stroke-width="4" stroke-linecap="round"/>
<path d="M1257.61 203.875V202.364H1266.62V203.875H1262.99V214H1261.24V203.875H1257.61ZM1270.79 214.176C1269.93 214.176 1269.19 213.992 1268.57 213.625C1267.95 213.254 1267.48 212.733 1267.14 212.062C1266.81 211.388 1266.64 210.598 1266.64 209.693C1266.64 208.799 1266.81 208.011 1267.14 207.33C1267.48 206.648 1267.95 206.116 1268.55 205.733C1269.16 205.35 1269.86 205.159 1270.67 205.159C1271.17 205.159 1271.64 205.241 1272.11 205.403C1272.57 205.566 1272.98 205.822 1273.35 206.17C1273.72 206.519 1274.01 206.972 1274.22 207.528C1274.43 208.081 1274.54 208.754 1274.54 209.545V210.148H1267.6V208.875H1272.87C1272.87 208.428 1272.78 208.032 1272.6 207.688C1272.42 207.339 1272.16 207.064 1271.83 206.864C1271.51 206.663 1271.12 206.562 1270.69 206.562C1270.21 206.562 1269.79 206.68 1269.44 206.915C1269.08 207.146 1268.81 207.449 1268.62 207.824C1268.43 208.195 1268.33 208.598 1268.33 209.034V210.028C1268.33 210.612 1268.44 211.108 1268.64 211.517C1268.85 211.926 1269.14 212.239 1269.51 212.455C1269.88 212.667 1270.31 212.773 1270.81 212.773C1271.13 212.773 1271.43 212.727 1271.69 212.636C1271.96 212.542 1272.19 212.402 1272.38 212.216C1272.57 212.03 1272.72 211.801 1272.82 211.528L1274.43 211.818C1274.3 212.292 1274.07 212.706 1273.74 213.062C1273.41 213.415 1272.99 213.689 1272.49 213.886C1272 214.08 1271.43 214.176 1270.79 214.176ZM1276.25 214V205.273H1277.88V206.693H1277.99C1278.17 206.212 1278.46 205.837 1278.88 205.568C1279.29 205.295 1279.78 205.159 1280.36 205.159C1280.94 205.159 1281.43 205.295 1281.83 205.568C1282.22 205.841 1282.52 206.216 1282.71 206.693H1282.8C1283.01 206.227 1283.34 205.856 1283.79 205.58C1284.25 205.299 1284.79 205.159 1285.42 205.159C1286.21 205.159 1286.85 205.407 1287.35 205.903C1287.86 206.4 1288.11 207.148 1288.11 208.148V214H1286.41V208.307C1286.41 207.716 1286.25 207.288 1285.93 207.023C1285.61 206.758 1285.22 206.625 1284.77 206.625C1284.22 206.625 1283.79 206.795 1283.49 207.136C1283.18 207.473 1283.02 207.907 1283.02 208.438V214H1281.33V208.199C1281.33 207.725 1281.18 207.345 1280.89 207.057C1280.59 206.769 1280.21 206.625 1279.74 206.625C1279.41 206.625 1279.12 206.71 1278.84 206.881C1278.57 207.047 1278.36 207.28 1278.19 207.58C1278.03 207.879 1277.95 208.225 1277.95 208.619V214H1276.25ZM1290.21 217.273V205.273H1291.87V206.688H1292.01C1292.11 206.506 1292.25 206.295 1292.44 206.057C1292.62 205.818 1292.88 205.61 1293.21 205.432C1293.54 205.25 1293.98 205.159 1294.52 205.159C1295.22 205.159 1295.85 205.337 1296.4 205.693C1296.96 206.049 1297.39 206.562 1297.71 207.233C1298.02 207.903 1298.18 208.71 1298.18 209.653C1298.18 210.597 1298.03 211.405 1297.71 212.08C1297.4 212.75 1296.96 213.267 1296.42 213.631C1295.87 213.991 1295.24 214.17 1294.54 214.17C1294 214.17 1293.57 214.081 1293.23 213.903C1292.9 213.725 1292.64 213.517 1292.45 213.278C1292.26 213.04 1292.11 212.828 1292.01 212.642H1291.91V217.273H1290.21ZM1291.88 209.636C1291.88 210.25 1291.96 210.788 1292.14 211.25C1292.32 211.712 1292.58 212.074 1292.92 212.335C1293.25 212.593 1293.67 212.722 1294.15 212.722C1294.66 212.722 1295.09 212.587 1295.43 212.318C1295.77 212.045 1296.03 211.676 1296.2 211.21C1296.38 210.744 1296.47 210.22 1296.47 209.636C1296.47 209.061 1296.38 208.544 1296.21 208.085C1296.04 207.627 1295.78 207.265 1295.43 207C1295.09 206.735 1294.67 206.602 1294.15 206.602C1293.66 206.602 1293.25 206.729 1292.9 206.983C1292.57 207.237 1292.31 207.591 1292.14 208.045C1291.96 208.5 1291.88 209.03 1291.88 209.636ZM1303.67 214.176C1302.81 214.176 1302.07 213.992 1301.45 213.625C1300.83 213.254 1300.36 212.733 1300.02 212.062C1299.68 211.388 1299.52 210.598 1299.52 209.693C1299.52 208.799 1299.68 208.011 1300.02 207.33C1300.36 206.648 1300.82 206.116 1301.43 205.733C1302.03 205.35 1302.74 205.159 1303.55 205.159C1304.04 205.159 1304.52 205.241 1304.98 205.403C1305.45 205.566 1305.86 205.822 1306.23 206.17C1306.6 206.519 1306.89 206.972 1307.1 207.528C1307.31 208.081 1307.42 208.754 1307.42 209.545V210.148H1300.48V208.875H1305.75C1305.75 208.428 1305.66 208.032 1305.48 207.688C1305.3 207.339 1305.04 207.064 1304.71 206.864C1304.39 206.663 1304 206.562 1303.56 206.562C1303.09 206.562 1302.67 206.68 1302.31 206.915C1301.96 207.146 1301.69 207.449 1301.5 207.824C1301.31 208.195 1301.21 208.598 1301.21 209.034V210.028C1301.21 210.612 1301.31 211.108 1301.52 211.517C1301.73 211.926 1302.02 212.239 1302.39 212.455C1302.76 212.667 1303.19 212.773 1303.69 212.773C1304.01 212.773 1304.3 212.727 1304.57 212.636C1304.83 212.542 1305.06 212.402 1305.26 212.216C1305.45 212.03 1305.6 211.801 1305.7 211.528L1307.31 211.818C1307.18 212.292 1306.95 212.706 1306.61 213.062C1306.29 213.415 1305.87 213.689 1305.37 213.886C1304.87 214.08 1304.31 214.176 1303.67 214.176ZM1309.12 214V205.273H1310.77V206.659H1310.86C1311.02 206.189 1311.3 205.82 1311.7 205.551C1312.1 205.278 1312.56 205.142 1313.07 205.142C1313.18 205.142 1313.3 205.146 1313.45 205.153C1313.6 205.161 1313.71 205.17 1313.8 205.182V206.807C1313.73 206.788 1313.61 206.767 1313.43 206.744C1313.26 206.718 1313.08 206.705 1312.91 206.705C1312.51 206.705 1312.15 206.79 1311.84 206.96C1311.52 207.127 1311.28 207.36 1311.1 207.659C1310.91 207.955 1310.82 208.292 1310.82 208.67V214H1309.12ZM1317.55 214.193C1317 214.193 1316.5 214.091 1316.05 213.886C1315.6 213.678 1315.25 213.377 1314.99 212.983C1314.73 212.589 1314.6 212.106 1314.6 211.534C1314.6 211.042 1314.7 210.636 1314.89 210.318C1315.08 210 1315.33 209.748 1315.65 209.562C1315.98 209.377 1316.34 209.237 1316.73 209.142C1317.13 209.047 1317.54 208.975 1317.95 208.926C1318.47 208.866 1318.9 208.816 1319.22 208.778C1319.55 208.737 1319.78 208.67 1319.93 208.58C1320.08 208.489 1320.15 208.341 1320.15 208.136V208.097C1320.15 207.6 1320.01 207.216 1319.73 206.943C1319.46 206.67 1319.04 206.534 1318.49 206.534C1317.92 206.534 1317.47 206.661 1317.14 206.915C1316.82 207.165 1316.59 207.443 1316.47 207.75L1314.87 207.386C1315.06 206.856 1315.34 206.428 1315.7 206.102C1316.07 205.773 1316.49 205.534 1316.97 205.386C1317.44 205.235 1317.95 205.159 1318.47 205.159C1318.82 205.159 1319.19 205.201 1319.58 205.284C1319.97 205.364 1320.34 205.511 1320.68 205.727C1321.03 205.943 1321.31 206.252 1321.53 206.653C1321.75 207.051 1321.86 207.568 1321.86 208.205V214H1320.2V212.807H1320.13C1320.02 213.027 1319.86 213.242 1319.64 213.455C1319.42 213.667 1319.13 213.843 1318.79 213.983C1318.45 214.123 1318.03 214.193 1317.55 214.193ZM1317.92 212.83C1318.39 212.83 1318.79 212.737 1319.12 212.551C1319.46 212.366 1319.72 212.123 1319.89 211.824C1320.07 211.521 1320.16 211.197 1320.16 210.852V209.727C1320.1 209.788 1319.98 209.845 1319.81 209.898C1319.64 209.947 1319.44 209.991 1319.22 210.028C1319 210.062 1318.79 210.095 1318.58 210.125C1318.37 210.152 1318.2 210.174 1318.06 210.193C1317.73 210.235 1317.43 210.305 1317.15 210.403C1316.88 210.502 1316.67 210.644 1316.51 210.83C1316.35 211.011 1316.27 211.254 1316.27 211.557C1316.27 211.977 1316.42 212.295 1316.73 212.511C1317.04 212.723 1317.44 212.83 1317.92 212.83ZM1328.02 205.273V206.636H1323.25V205.273H1328.02ZM1324.53 203.182H1326.23V211.438C1326.23 211.767 1326.28 212.015 1326.38 212.182C1326.47 212.345 1326.6 212.456 1326.76 212.517C1326.92 212.574 1327.09 212.602 1327.27 212.602C1327.41 212.602 1327.53 212.593 1327.63 212.574C1327.73 212.555 1327.81 212.54 1327.87 212.528L1328.18 213.932C1328.08 213.97 1327.94 214.008 1327.76 214.045C1327.58 214.087 1327.35 214.11 1327.08 214.114C1326.63 214.121 1326.21 214.042 1325.83 213.875C1325.44 213.708 1325.13 213.451 1324.89 213.102C1324.65 212.754 1324.53 212.316 1324.53 211.79V203.182ZM1335.25 210.381V205.273H1336.95V214H1335.28V212.489H1335.19C1334.99 212.955 1334.67 213.343 1334.23 213.653C1333.79 213.96 1333.24 214.114 1332.59 214.114C1332.02 214.114 1331.53 213.991 1331.1 213.744C1330.67 213.494 1330.33 213.125 1330.09 212.636C1329.84 212.148 1329.72 211.544 1329.72 210.824V205.273H1331.42V210.619C1331.42 211.214 1331.59 211.687 1331.91 212.04C1332.24 212.392 1332.67 212.568 1333.2 212.568C1333.52 212.568 1333.83 212.489 1334.15 212.33C1334.47 212.17 1334.73 211.93 1334.94 211.608C1335.15 211.286 1335.25 210.877 1335.25 210.381ZM1339.06 214V205.273H1340.7V206.659H1340.79C1340.95 206.189 1341.23 205.82 1341.64 205.551C1342.04 205.278 1342.5 205.142 1343.01 205.142C1343.12 205.142 1343.24 205.146 1343.39 205.153C1343.53 205.161 1343.65 205.17 1343.73 205.182V206.807C1343.66 206.788 1343.54 206.767 1343.37 206.744C1343.19 206.718 1343.02 206.705 1342.85 206.705C1342.44 206.705 1342.09 206.79 1341.77 206.96C1341.46 207.127 1341.21 207.36 1341.03 207.659C1340.85 207.955 1340.76 208.292 1340.76 208.67V214H1339.06ZM1348.47 214.176C1347.62 214.176 1346.87 213.992 1346.25 213.625C1345.64 213.254 1345.16 212.733 1344.82 212.062C1344.49 211.388 1344.32 210.598 1344.32 209.693C1344.32 208.799 1344.49 208.011 1344.82 207.33C1345.16 206.648 1345.63 206.116 1346.23 205.733C1346.84 205.35 1347.54 205.159 1348.36 205.159C1348.85 205.159 1349.33 205.241 1349.79 205.403C1350.25 205.566 1350.66 205.822 1351.03 206.17C1351.4 206.519 1351.69 206.972 1351.9 207.528C1352.11 208.081 1352.22 208.754 1352.22 209.545V210.148H1345.28V208.875H1350.55C1350.55 208.428 1350.46 208.032 1350.28 207.688C1350.1 207.339 1349.84 207.064 1349.51 206.864C1349.19 206.663 1348.81 206.562 1348.37 206.562C1347.89 206.562 1347.47 206.68 1347.12 206.915C1346.76 207.146 1346.49 207.449 1346.3 207.824C1346.11 208.195 1346.01 208.598 1346.01 209.034V210.028C1346.01 210.612 1346.12 211.108 1346.32 211.517C1346.53 211.926 1346.82 212.239 1347.19 212.455C1347.56 212.667 1348 212.773 1348.49 212.773C1348.81 212.773 1349.11 212.727 1349.37 212.636C1349.64 212.542 1349.87 212.402 1350.06 212.216C1350.25 212.03 1350.4 211.801 1350.5 211.528L1352.11 211.818C1351.98 212.292 1351.75 212.706 1351.42 213.062C1351.09 213.415 1350.67 213.689 1350.17 213.886C1349.68 214.08 1349.11 214.176 1348.47 214.176ZM1361.37 214.165C1360.59 214.165 1359.92 214.023 1359.36 213.739C1358.8 213.455 1358.36 213.068 1358.06 212.58C1357.76 212.087 1357.61 211.53 1357.61 210.909C1357.61 210.436 1357.7 210.015 1357.9 209.648C1358.1 209.277 1358.37 208.934 1358.73 208.619C1359.08 208.305 1359.48 207.989 1359.95 207.67L1361.82 206.347C1362.14 206.138 1362.39 205.919 1362.57 205.688C1362.74 205.453 1362.83 205.163 1362.83 204.818C1362.83 204.545 1362.72 204.284 1362.48 204.034C1362.25 203.784 1361.93 203.659 1361.54 203.659C1361.26 203.659 1361.02 203.725 1360.82 203.858C1360.61 203.991 1360.45 204.161 1360.33 204.369C1360.22 204.574 1360.16 204.79 1360.16 205.017C1360.16 205.282 1360.23 205.549 1360.38 205.818C1360.53 206.087 1360.72 206.366 1360.95 206.653C1361.18 206.937 1361.42 207.233 1361.67 207.54L1367.08 214H1365.16L1360.69 208.744C1360.31 208.301 1359.96 207.884 1359.64 207.494C1359.32 207.1 1359.06 206.703 1358.86 206.301C1358.66 205.896 1358.56 205.458 1358.56 204.989C1358.56 204.455 1358.68 203.981 1358.92 203.568C1359.17 203.152 1359.51 202.826 1359.95 202.591C1360.39 202.356 1360.91 202.239 1361.5 202.239C1362.1 202.239 1362.61 202.356 1363.04 202.591C1363.47 202.822 1363.8 203.131 1364.03 203.517C1364.27 203.9 1364.38 204.318 1364.38 204.773C1364.38 205.326 1364.25 205.814 1363.97 206.239C1363.7 206.659 1363.32 207.045 1362.84 207.398L1360.5 209.119C1360.05 209.453 1359.73 209.782 1359.55 210.108C1359.38 210.43 1359.29 210.682 1359.29 210.864C1359.29 211.197 1359.38 211.506 1359.55 211.79C1359.72 212.074 1359.97 212.301 1360.28 212.472C1360.59 212.642 1360.96 212.727 1361.38 212.727C1361.81 212.727 1362.23 212.634 1362.64 212.449C1363.05 212.259 1363.43 211.989 1363.76 211.636C1364.1 211.284 1364.36 210.862 1364.56 210.369C1364.76 209.877 1364.86 209.326 1364.86 208.716H1366.39C1366.39 209.466 1366.3 210.1 1366.13 210.619C1365.96 211.134 1365.76 211.555 1365.51 211.881C1365.28 212.203 1365.05 212.455 1364.84 212.636C1364.77 212.697 1364.71 212.758 1364.65 212.818C1364.59 212.879 1364.52 212.939 1364.45 213C1364.06 213.398 1363.58 213.691 1363.02 213.881C1362.46 214.07 1361.91 214.165 1361.37 214.165ZM1251.32 238V226.364H1253.08V231.42H1258.88V226.364H1260.64V238H1258.88V232.926H1253.08V238H1251.32ZM1268.41 234.381V229.273H1270.12V238H1268.45V236.489H1268.36C1268.16 236.955 1267.83 237.343 1267.39 237.653C1266.95 237.96 1266.4 238.114 1265.75 238.114C1265.19 238.114 1264.69 237.991 1264.26 237.744C1263.83 237.494 1263.5 237.125 1263.25 236.636C1263.01 236.148 1262.89 235.544 1262.89 234.824V229.273H1264.58V234.619C1264.58 235.214 1264.75 235.687 1265.08 236.04C1265.41 236.392 1265.84 236.568 1266.36 236.568C1266.68 236.568 1267 236.489 1267.31 236.33C1267.63 236.17 1267.89 235.93 1268.1 235.608C1268.31 235.286 1268.42 234.877 1268.41 234.381ZM1272.23 238V229.273H1273.86V230.693H1273.96C1274.15 230.212 1274.44 229.837 1274.86 229.568C1275.27 229.295 1275.76 229.159 1276.34 229.159C1276.92 229.159 1277.41 229.295 1277.8 229.568C1278.2 229.841 1278.5 230.216 1278.69 230.693H1278.78C1278.98 230.227 1279.32 229.856 1279.77 229.58C1280.23 229.299 1280.77 229.159 1281.4 229.159C1282.19 229.159 1282.83 229.407 1283.33 229.903C1283.84 230.4 1284.09 231.148 1284.09 232.148V238H1282.39V232.307C1282.39 231.716 1282.23 231.288 1281.91 231.023C1281.59 230.758 1281.2 230.625 1280.75 230.625C1280.2 230.625 1279.77 230.795 1279.46 231.136C1279.16 231.473 1279 231.907 1279 232.438V238H1277.31V232.199C1277.31 231.725 1277.16 231.345 1276.87 231.057C1276.57 230.769 1276.19 230.625 1275.71 230.625C1275.39 230.625 1275.09 230.71 1274.82 230.881C1274.55 231.047 1274.34 231.28 1274.17 231.58C1274.01 231.879 1273.92 232.225 1273.92 232.619V238H1272.23ZM1286.19 238V229.273H1287.89V238H1286.19ZM1287.05 227.926C1286.75 227.926 1286.5 227.828 1286.29 227.631C1286.08 227.43 1285.97 227.191 1285.97 226.915C1285.97 226.634 1286.08 226.396 1286.29 226.199C1286.5 225.998 1286.75 225.898 1287.05 225.898C1287.34 225.898 1287.6 225.998 1287.8 226.199C1288.02 226.396 1288.12 226.634 1288.12 226.915C1288.12 227.191 1288.02 227.43 1287.8 227.631C1287.6 227.828 1287.34 227.926 1287.05 227.926ZM1293.27 238.17C1292.56 238.17 1291.93 237.991 1291.38 237.631C1290.83 237.267 1290.4 236.75 1290.08 236.08C1289.77 235.405 1289.62 234.597 1289.62 233.653C1289.62 232.71 1289.77 231.903 1290.09 231.233C1290.41 230.562 1290.84 230.049 1291.4 229.693C1291.95 229.337 1292.58 229.159 1293.28 229.159C1293.82 229.159 1294.25 229.25 1294.58 229.432C1294.92 229.61 1295.17 229.818 1295.36 230.057C1295.54 230.295 1295.69 230.506 1295.79 230.688H1295.89V226.364H1297.59V238H1295.93V236.642H1295.79C1295.69 236.828 1295.54 237.04 1295.34 237.278C1295.16 237.517 1294.89 237.725 1294.56 237.903C1294.23 238.081 1293.8 238.17 1293.27 238.17ZM1293.64 236.722C1294.13 236.722 1294.54 236.593 1294.88 236.335C1295.22 236.074 1295.48 235.712 1295.65 235.25C1295.83 234.788 1295.92 234.25 1295.92 233.636C1295.92 233.03 1295.83 232.5 1295.66 232.045C1295.48 231.591 1295.23 231.237 1294.89 230.983C1294.55 230.729 1294.14 230.602 1293.64 230.602C1293.13 230.602 1292.7 230.735 1292.36 231C1292.02 231.265 1291.76 231.627 1291.59 232.085C1291.42 232.544 1291.33 233.061 1291.33 233.636C1291.33 234.22 1291.42 234.744 1291.59 235.21C1291.77 235.676 1292.03 236.045 1292.37 236.318C1292.71 236.587 1293.14 236.722 1293.64 236.722ZM1299.84 238V229.273H1301.54V238H1299.84ZM1300.7 227.926C1300.4 227.926 1300.15 227.828 1299.93 227.631C1299.73 227.43 1299.62 227.191 1299.62 226.915C1299.62 226.634 1299.73 226.396 1299.93 226.199C1300.15 225.998 1300.4 225.898 1300.7 225.898C1300.99 225.898 1301.24 225.998 1301.45 226.199C1301.66 226.396 1301.77 226.634 1301.77 226.915C1301.77 227.191 1301.66 227.43 1301.45 227.631C1301.24 227.828 1300.99 227.926 1300.7 227.926ZM1307.72 229.273V230.636H1302.95V229.273H1307.72ZM1304.23 227.182H1305.93V235.438C1305.93 235.767 1305.98 236.015 1306.08 236.182C1306.18 236.345 1306.3 236.456 1306.46 236.517C1306.62 236.574 1306.79 236.602 1306.98 236.602C1307.11 236.602 1307.23 236.593 1307.33 236.574C1307.44 236.555 1307.52 236.54 1307.57 236.528L1307.88 237.932C1307.78 237.97 1307.64 238.008 1307.46 238.045C1307.28 238.087 1307.05 238.11 1306.78 238.114C1306.33 238.121 1305.91 238.042 1305.53 237.875C1305.14 237.708 1304.83 237.451 1304.59 237.102C1304.35 236.754 1304.23 236.316 1304.23 235.79V227.182ZM1310.5 241.273C1310.24 241.273 1310.01 241.252 1309.8 241.21C1309.6 241.172 1309.44 241.131 1309.34 241.085L1309.75 239.693C1310.06 239.777 1310.33 239.813 1310.58 239.801C1310.82 239.79 1311.03 239.699 1311.22 239.528C1311.41 239.358 1311.57 239.08 1311.72 238.693L1311.93 238.114L1308.74 229.273H1310.55L1312.76 236.045H1312.86L1315.07 229.273H1316.89L1313.29 239.165C1313.13 239.619 1312.91 240.004 1312.66 240.318C1312.4 240.636 1312.09 240.875 1311.74 241.034C1311.38 241.193 1310.97 241.273 1310.5 241.273ZM1328.85 229.42C1328.79 228.883 1328.54 228.466 1328.1 228.17C1327.66 227.871 1327.11 227.722 1326.44 227.722C1325.96 227.722 1325.55 227.797 1325.2 227.949C1324.85 228.097 1324.58 228.301 1324.39 228.562C1324.2 228.82 1324.11 229.114 1324.11 229.443C1324.11 229.72 1324.17 229.958 1324.3 230.159C1324.43 230.36 1324.6 230.528 1324.82 230.665C1325.03 230.797 1325.26 230.909 1325.51 231C1325.76 231.087 1325.99 231.159 1326.22 231.216L1327.36 231.511C1327.73 231.602 1328.11 231.725 1328.5 231.881C1328.89 232.036 1329.25 232.241 1329.58 232.494C1329.92 232.748 1330.19 233.062 1330.39 233.438C1330.6 233.812 1330.7 234.261 1330.7 234.784C1330.7 235.443 1330.53 236.028 1330.19 236.54C1329.85 237.051 1329.36 237.455 1328.72 237.75C1328.08 238.045 1327.31 238.193 1326.4 238.193C1325.53 238.193 1324.77 238.055 1324.14 237.778C1323.5 237.502 1323 237.11 1322.64 236.602C1322.28 236.091 1322.08 235.485 1322.04 234.784H1323.81C1323.84 235.205 1323.98 235.555 1324.21 235.835C1324.46 236.112 1324.77 236.318 1325.14 236.455C1325.52 236.587 1325.93 236.653 1326.39 236.653C1326.88 236.653 1327.32 236.576 1327.71 236.42C1328.1 236.261 1328.41 236.042 1328.63 235.761C1328.85 235.477 1328.96 235.146 1328.96 234.767C1328.96 234.422 1328.87 234.14 1328.67 233.92C1328.48 233.701 1328.21 233.519 1327.88 233.375C1327.55 233.231 1327.18 233.104 1326.76 232.994L1325.39 232.619C1324.45 232.366 1323.71 231.992 1323.17 231.5C1322.63 231.008 1322.36 230.356 1322.36 229.545C1322.36 228.875 1322.54 228.29 1322.9 227.79C1323.27 227.29 1323.76 226.902 1324.38 226.625C1325 226.345 1325.7 226.205 1326.48 226.205C1327.27 226.205 1327.96 226.343 1328.57 226.619C1329.17 226.896 1329.65 227.277 1330 227.761C1330.35 228.242 1330.53 228.795 1330.54 229.42H1328.85ZM1336.25 238.176C1335.39 238.176 1334.65 237.992 1334.03 237.625C1333.41 237.254 1332.93 236.733 1332.6 236.062C1332.26 235.388 1332.1 234.598 1332.1 233.693C1332.1 232.799 1332.26 232.011 1332.6 231.33C1332.93 230.648 1333.4 230.116 1334.01 229.733C1334.61 229.35 1335.32 229.159 1336.13 229.159C1336.62 229.159 1337.1 229.241 1337.56 229.403C1338.03 229.566 1338.44 229.822 1338.81 230.17C1339.17 230.519 1339.46 230.972 1339.68 231.528C1339.89 232.081 1339.99 232.754 1339.99 233.545V234.148H1333.06V232.875H1338.33C1338.33 232.428 1338.24 232.032 1338.06 231.688C1337.88 231.339 1337.62 231.064 1337.29 230.864C1336.96 230.663 1336.58 230.562 1336.14 230.562C1335.67 230.562 1335.25 230.68 1334.89 230.915C1334.54 231.146 1334.27 231.449 1334.07 231.824C1333.88 232.195 1333.79 232.598 1333.79 233.034V234.028C1333.79 234.612 1333.89 235.108 1334.1 235.517C1334.31 235.926 1334.6 236.239 1334.97 236.455C1335.34 236.667 1335.77 236.773 1336.27 236.773C1336.59 236.773 1336.88 236.727 1337.15 236.636C1337.41 236.542 1337.64 236.402 1337.84 236.216C1338.03 236.03 1338.18 235.801 1338.28 235.528L1339.89 235.818C1339.76 236.292 1339.53 236.706 1339.19 237.062C1338.86 237.415 1338.45 237.689 1337.95 237.886C1337.45 238.08 1336.89 238.176 1336.25 238.176ZM1343.4 232.818V238H1341.7V229.273H1343.33V230.693H1343.44C1343.64 230.231 1343.96 229.86 1344.39 229.58C1344.82 229.299 1345.36 229.159 1346.02 229.159C1346.61 229.159 1347.13 229.284 1347.58 229.534C1348.03 229.78 1348.37 230.148 1348.62 230.636C1348.86 231.125 1348.99 231.729 1348.99 232.449V238H1347.29V232.653C1347.29 232.021 1347.12 231.527 1346.79 231.17C1346.47 230.811 1346.01 230.631 1345.44 230.631C1345.04 230.631 1344.69 230.716 1344.39 230.886C1344.08 231.057 1343.84 231.307 1343.66 231.636C1343.49 231.962 1343.4 232.356 1343.4 232.818ZM1357.63 231.403L1356.09 231.676C1356.03 231.479 1355.92 231.292 1355.78 231.114C1355.65 230.936 1355.46 230.79 1355.23 230.676C1354.99 230.562 1354.7 230.506 1354.35 230.506C1353.86 230.506 1353.46 230.614 1353.14 230.83C1352.82 231.042 1352.66 231.316 1352.66 231.653C1352.66 231.945 1352.77 232.18 1352.98 232.358C1353.2 232.536 1353.55 232.682 1354.03 232.795L1355.41 233.114C1356.22 233.299 1356.82 233.585 1357.21 233.972C1357.6 234.358 1357.8 234.86 1357.8 235.477C1357.8 236 1357.65 236.466 1357.35 236.875C1357.05 237.28 1356.63 237.598 1356.09 237.83C1355.56 238.061 1354.94 238.176 1354.23 238.176C1353.25 238.176 1352.46 237.968 1351.84 237.551C1351.22 237.131 1350.84 236.534 1350.7 235.761L1352.35 235.511C1352.45 235.939 1352.66 236.263 1352.98 236.483C1353.29 236.699 1353.71 236.807 1354.22 236.807C1354.78 236.807 1355.22 236.691 1355.56 236.46C1355.89 236.225 1356.06 235.939 1356.06 235.602C1356.06 235.33 1355.95 235.1 1355.75 234.915C1355.55 234.729 1355.24 234.589 1354.82 234.494L1353.35 234.17C1352.53 233.985 1351.93 233.689 1351.54 233.284C1351.15 232.879 1350.96 232.366 1350.96 231.744C1350.96 231.229 1351.1 230.778 1351.39 230.392C1351.68 230.006 1352.08 229.705 1352.58 229.489C1353.09 229.269 1353.67 229.159 1354.33 229.159C1355.27 229.159 1356.01 229.364 1356.56 229.773C1357.1 230.178 1357.46 230.722 1357.63 231.403ZM1363.17 238.176C1362.35 238.176 1361.64 237.989 1361.03 237.614C1360.42 237.239 1359.94 236.714 1359.61 236.04C1359.27 235.366 1359.1 234.578 1359.1 233.676C1359.1 232.771 1359.27 231.979 1359.61 231.301C1359.94 230.623 1360.42 230.097 1361.03 229.722C1361.64 229.347 1362.35 229.159 1363.17 229.159C1363.99 229.159 1364.7 229.347 1365.31 229.722C1365.92 230.097 1366.39 230.623 1366.73 231.301C1367.07 231.979 1367.24 232.771 1367.24 233.676C1367.24 234.578 1367.07 235.366 1366.73 236.04C1366.39 236.714 1365.92 237.239 1365.31 237.614C1364.7 237.989 1363.99 238.176 1363.17 238.176ZM1363.17 236.75C1363.7 236.75 1364.14 236.61 1364.49 236.33C1364.84 236.049 1365.1 235.676 1365.27 235.21C1365.44 234.744 1365.52 234.231 1365.52 233.67C1365.52 233.114 1365.44 232.602 1365.27 232.136C1365.1 231.667 1364.84 231.29 1364.49 231.006C1364.14 230.722 1363.7 230.58 1363.17 230.58C1362.64 230.58 1362.2 230.722 1361.84 231.006C1361.5 231.29 1361.24 231.667 1361.07 232.136C1360.9 232.602 1360.82 233.114 1360.82 233.67C1360.82 234.231 1360.9 234.744 1361.07 235.21C1361.24 235.676 1361.5 236.049 1361.84 236.33C1362.2 236.61 1362.64 236.75 1363.17 236.75ZM1368.96 238V229.273H1370.6V230.659H1370.69C1370.85 230.189 1371.13 229.82 1371.53 229.551C1371.94 229.278 1372.39 229.142 1372.91 229.142C1373.01 229.142 1373.14 229.146 1373.28 229.153C1373.43 229.161 1373.54 229.17 1373.63 229.182V230.807C1373.56 230.788 1373.44 230.767 1373.26 230.744C1373.09 230.718 1372.92 230.705 1372.74 230.705C1372.34 230.705 1371.98 230.79 1371.67 230.96C1371.36 231.127 1371.11 231.36 1370.93 231.659C1370.75 231.955 1370.66 232.292 1370.66 232.67V238H1368.96Z" fill="#050505"/>
<path d="M1256.91 217.182H1289.12V218.273H1256.91V217.182ZM1293 217.182H1367.09V218.273H1293V217.182ZM1250.04 241.182H1308.57V242.273H1250.04V241.182ZM1312.4 241.182H1373.96V242.273H1312.4V241.182Z" fill="#050505"/>
<a href="https://www.electrokit.com/en/digital-temperatur-och-fuktsensor-dht11">
<rect fill="black" fill-opacity="0" x="8.90963" y="2.31818" width="114.419" height="19.3636"/>
</a>
<a href="https://www.electrokit.com/en/digital-temperatur-och-fuktsensor-dht11">
<rect fill="black" fill-opacity="0" x="2.0445" y="26.3182" width="123.918" height="19.3636"/>
</a>
<rect x="800" y="64" width="48" height="64" rx="3" fill="#FFFBE6"/>
<rect x="800" y="64" width="48" height="64" rx="3" fill="#FA8334" fill-opacity="0.3"/>
<rect x="800" y="64" width="48" height="64" rx="3" stroke="#FA8334" stroke-width="4" stroke-linecap="round"/>
<path d="M819.579 102H815.812V90.3636H819.698C820.838 90.3636 821.817 90.5966 822.636 91.0625C823.454 91.5246 824.081 92.1894 824.516 93.0568C824.956 93.9205 825.175 94.9564 825.175 96.1648C825.175 97.3769 824.954 98.4186 824.511 99.2898C824.071 100.161 823.435 100.831 822.601 101.301C821.768 101.767 820.761 102 819.579 102ZM817.567 100.466H819.482C820.369 100.466 821.105 100.299 821.692 99.9659C822.28 99.6288 822.719 99.142 823.011 98.5057C823.302 97.8655 823.448 97.0852 823.448 96.1648C823.448 95.2519 823.302 94.4773 823.011 93.8409C822.723 93.2045 822.293 92.7216 821.721 92.392C821.149 92.0625 820.439 91.8977 819.59 91.8977H817.567V100.466ZM831.438 90.3636V102H829.677V92.125H829.609L826.825 93.9432V92.2614L829.728 90.3636H831.438Z" fill="#050505"/>
<rect x="656" y="64" width="128" height="304" rx="6" fill="#FFFBE6"/>
<rect x="656" y="64" width="128" height="304" rx="6" fill="#23B5D3" fill-opacity="0.5"/>
<rect x="656" y="64" width="128" height="304" rx="6" stroke="#23B5D3" stroke-width="4" stroke-linecap="round"/>
<path d="M693.002 210H691.139L695.326 198.364H697.355L701.542 210H699.678L696.389 200.477H696.298L693.002 210ZM693.315 205.443H699.36V206.92H693.315V205.443ZM702.91 210V201.273H704.552V202.659H704.643C704.802 202.189 705.083 201.82 705.484 201.551C705.889 201.278 706.348 201.142 706.859 201.142C706.965 201.142 707.09 201.146 707.234 201.153C707.382 201.161 707.497 201.17 707.581 201.182V202.807C707.512 202.788 707.391 202.767 707.217 202.744C707.043 202.718 706.869 202.705 706.694 202.705C706.293 202.705 705.935 202.79 705.62 202.96C705.31 203.127 705.064 203.36 704.882 203.659C704.7 203.955 704.609 204.292 704.609 204.67V210H702.91ZM711.829 210.17C711.125 210.17 710.496 209.991 709.943 209.631C709.394 209.267 708.962 208.75 708.648 208.08C708.337 207.405 708.182 206.597 708.182 205.653C708.182 204.71 708.339 203.903 708.653 203.233C708.971 202.562 709.407 202.049 709.96 201.693C710.513 201.337 711.14 201.159 711.841 201.159C712.382 201.159 712.818 201.25 713.148 201.432C713.481 201.61 713.738 201.818 713.92 202.057C714.106 202.295 714.25 202.506 714.352 202.688H714.454V198.364H716.153V210H714.494V208.642H714.352C714.25 208.828 714.102 209.04 713.909 209.278C713.719 209.517 713.458 209.725 713.125 209.903C712.791 210.081 712.36 210.17 711.829 210.17ZM712.204 208.722C712.693 208.722 713.106 208.593 713.443 208.335C713.784 208.074 714.041 207.712 714.216 207.25C714.394 206.788 714.483 206.25 714.483 205.636C714.483 205.03 714.396 204.5 714.221 204.045C714.047 203.591 713.791 203.237 713.454 202.983C713.117 202.729 712.701 202.602 712.204 202.602C711.693 202.602 711.267 202.735 710.926 203C710.585 203.265 710.327 203.627 710.153 204.085C709.983 204.544 709.898 205.061 709.898 205.636C709.898 206.22 709.985 206.744 710.159 207.21C710.333 207.676 710.591 208.045 710.932 208.318C711.276 208.587 711.701 208.722 712.204 208.722ZM723.93 206.381V201.273H725.635V210H723.964V208.489H723.874C723.673 208.955 723.351 209.343 722.908 209.653C722.468 209.96 721.921 210.114 721.266 210.114C720.705 210.114 720.209 209.991 719.777 209.744C719.349 209.494 719.012 209.125 718.766 208.636C718.523 208.148 718.402 207.544 718.402 206.824V201.273H720.101V206.619C720.101 207.214 720.266 207.687 720.595 208.04C720.925 208.392 721.353 208.568 721.879 208.568C722.197 208.568 722.514 208.489 722.828 208.33C723.146 208.17 723.409 207.93 723.618 207.608C723.83 207.286 723.934 206.877 723.93 206.381ZM727.742 210V201.273H729.44V210H727.742ZM728.6 199.926C728.304 199.926 728.05 199.828 727.838 199.631C727.63 199.43 727.526 199.191 727.526 198.915C727.526 198.634 727.63 198.396 727.838 198.199C728.05 197.998 728.304 197.898 728.6 197.898C728.895 197.898 729.147 197.998 729.355 198.199C729.567 198.396 729.673 198.634 729.673 198.915C729.673 199.191 729.567 199.43 729.355 199.631C729.147 199.828 728.895 199.926 728.6 199.926ZM733.249 204.818V210H731.55V201.273H733.181V202.693H733.289C733.489 202.231 733.804 201.86 734.232 201.58C734.664 201.299 735.207 201.159 735.862 201.159C736.457 201.159 736.978 201.284 737.425 201.534C737.872 201.78 738.218 202.148 738.465 202.636C738.711 203.125 738.834 203.729 738.834 204.449V210H737.135V204.653C737.135 204.021 736.97 203.527 736.641 203.17C736.311 202.811 735.859 202.631 735.283 202.631C734.889 202.631 734.539 202.716 734.232 202.886C733.929 203.057 733.688 203.307 733.51 203.636C733.336 203.962 733.249 204.356 733.249 204.818ZM744.613 210.176C743.794 210.176 743.08 209.989 742.471 209.614C741.861 209.239 741.387 208.714 741.05 208.04C740.713 207.366 740.544 206.578 740.544 205.676C740.544 204.771 740.713 203.979 741.05 203.301C741.387 202.623 741.861 202.097 742.471 201.722C743.08 201.347 743.794 201.159 744.613 201.159C745.431 201.159 746.145 201.347 746.755 201.722C747.364 202.097 747.838 202.623 748.175 203.301C748.512 203.979 748.681 204.771 748.681 205.676C748.681 206.578 748.512 207.366 748.175 208.04C747.838 208.714 747.364 209.239 746.755 209.614C746.145 209.989 745.431 210.176 744.613 210.176ZM744.618 208.75C745.149 208.75 745.588 208.61 745.936 208.33C746.285 208.049 746.542 207.676 746.709 207.21C746.88 206.744 746.965 206.231 746.965 205.67C746.965 205.114 746.88 204.602 746.709 204.136C746.542 203.667 746.285 203.29 745.936 203.006C745.588 202.722 745.149 202.58 744.618 202.58C744.084 202.58 743.641 202.722 743.289 203.006C742.94 203.29 742.681 203.667 742.51 204.136C742.344 204.602 742.26 205.114 742.26 205.67C742.26 206.231 742.344 206.744 742.51 207.21C742.681 207.676 742.94 208.049 743.289 208.33C743.641 208.61 744.084 208.75 744.618 208.75ZM710.802 222.364V234H709.188L703.273 225.466H703.165V234H701.41V222.364H703.035L708.955 230.909H709.063V222.364H710.802ZM715.59 234.193C715.037 234.193 714.537 234.091 714.09 233.886C713.643 233.678 713.289 233.377 713.028 232.983C712.77 232.589 712.641 232.106 712.641 231.534C712.641 231.042 712.736 230.636 712.925 230.318C713.115 230 713.37 229.748 713.692 229.562C714.014 229.377 714.374 229.237 714.772 229.142C715.17 229.047 715.575 228.975 715.988 228.926C716.511 228.866 716.935 228.816 717.261 228.778C717.586 228.737 717.823 228.67 717.971 228.58C718.119 228.489 718.192 228.341 718.192 228.136V228.097C718.192 227.6 718.052 227.216 717.772 226.943C717.495 226.67 717.083 226.534 716.533 226.534C715.961 226.534 715.511 226.661 715.181 226.915C714.855 227.165 714.63 227.443 714.505 227.75L712.908 227.386C713.098 226.856 713.374 226.428 713.738 226.102C714.105 225.773 714.528 225.534 715.005 225.386C715.482 225.235 715.984 225.159 716.511 225.159C716.859 225.159 717.228 225.201 717.619 225.284C718.012 225.364 718.38 225.511 718.721 225.727C719.066 225.943 719.348 226.252 719.567 226.653C719.787 227.051 719.897 227.568 719.897 228.205V234H718.238V232.807H718.17C718.06 233.027 717.895 233.242 717.675 233.455C717.456 233.667 717.173 233.843 716.829 233.983C716.484 234.123 716.071 234.193 715.59 234.193ZM715.959 232.83C716.429 232.83 716.831 232.737 717.164 232.551C717.501 232.366 717.757 232.123 717.931 231.824C718.109 231.521 718.198 231.197 718.198 230.852V229.727C718.137 229.788 718.02 229.845 717.846 229.898C717.675 229.947 717.48 229.991 717.261 230.028C717.041 230.062 716.827 230.095 716.619 230.125C716.41 230.152 716.236 230.174 716.096 230.193C715.766 230.235 715.465 230.305 715.192 230.403C714.923 230.502 714.708 230.644 714.545 230.83C714.386 231.011 714.306 231.254 714.306 231.557C714.306 231.977 714.461 232.295 714.772 232.511C715.083 232.723 715.478 232.83 715.959 232.83ZM723.683 228.818V234H721.984V225.273H723.614V226.693H723.722C723.923 226.231 724.238 225.86 724.666 225.58C725.097 225.299 725.641 225.159 726.296 225.159C726.891 225.159 727.412 225.284 727.859 225.534C728.306 225.78 728.652 226.148 728.899 226.636C729.145 227.125 729.268 227.729 729.268 228.449V234H727.569V228.653C727.569 228.021 727.404 227.527 727.075 227.17C726.745 226.811 726.292 226.631 725.717 226.631C725.323 226.631 724.972 226.716 724.666 226.886C724.363 227.057 724.122 227.307 723.944 227.636C723.77 227.962 723.683 228.356 723.683 228.818ZM735.046 234.176C734.228 234.176 733.514 233.989 732.904 233.614C732.294 233.239 731.821 232.714 731.484 232.04C731.147 231.366 730.978 230.578 730.978 229.676C730.978 228.771 731.147 227.979 731.484 227.301C731.821 226.623 732.294 226.097 732.904 225.722C733.514 225.347 734.228 225.159 735.046 225.159C735.865 225.159 736.579 225.347 737.188 225.722C737.798 226.097 738.272 226.623 738.609 227.301C738.946 227.979 739.115 228.771 739.115 229.676C739.115 230.578 738.946 231.366 738.609 232.04C738.272 232.714 737.798 233.239 737.188 233.614C736.579 233.989 735.865 234.176 735.046 234.176ZM735.052 232.75C735.582 232.75 736.022 232.61 736.37 232.33C736.719 232.049 736.976 231.676 737.143 231.21C737.313 230.744 737.399 230.231 737.399 229.67C737.399 229.114 737.313 228.602 737.143 228.136C736.976 227.667 736.719 227.29 736.37 227.006C736.022 226.722 735.582 226.58 735.052 226.58C734.518 226.58 734.075 226.722 733.723 227.006C733.374 227.29 733.115 227.667 732.944 228.136C732.777 228.602 732.694 229.114 732.694 229.67C732.694 230.231 732.777 230.744 732.944 231.21C733.115 231.676 733.374 232.049 733.723 232.33C734.075 232.61 734.518 232.75 735.052 232.75Z" fill="#050505"/>
<rect x="592" y="224" width="48" height="64" rx="3" fill="#050505" fill-opacity="0.3" stroke="#050505" stroke-opacity="0.3" stroke-width="4" stroke-linecap="round"/>
<rect x="800" y="224" width="48" height="64" rx="3" fill="#050505" fill-opacity="0.3" stroke="#050505" stroke-opacity="0.3" stroke-width="4" stroke-linecap="round"/>
<rect x="592" y="304" width="48" height="64" rx="3" fill="#050505" fill-opacity="0.3" stroke="#050505" stroke-opacity="0.3" stroke-width="4" stroke-linecap="round"/>
<rect x="800" y="304" width="48" height="64" rx="3" fill="#050505" fill-opacity="0.3" stroke="#050505" stroke-opacity="0.3" stroke-width="4" stroke-linecap="round"/>
<rect x="592" y="144" width="48" height="64" rx="3" fill="#FFFBE6"/>
<rect x="592" y="144" width="48" height="64" rx="3" fill="#D64933" fill-opacity="0.3"/>
<rect x="592" y="144" width="48" height="64" rx="3" stroke="#D64933" stroke-width="4" stroke-linecap="round"/>
<path d="M607.842 182H605.978L610.165 170.364H612.194L616.381 182H614.518L611.228 172.477H611.137L607.842 182ZM608.154 177.443H614.2V178.92H608.154V177.443ZM617.727 182V180.727L621.664 176.648C622.085 176.205 622.431 175.816 622.704 175.483C622.98 175.146 623.187 174.826 623.323 174.523C623.46 174.22 623.528 173.898 623.528 173.557C623.528 173.17 623.437 172.837 623.255 172.557C623.073 172.273 622.825 172.055 622.511 171.903C622.196 171.748 621.842 171.67 621.448 171.67C621.032 171.67 620.668 171.756 620.357 171.926C620.047 172.097 619.808 172.337 619.641 172.648C619.475 172.958 619.391 173.322 619.391 173.739H617.715C617.715 173.03 617.878 172.411 618.204 171.881C618.53 171.35 618.977 170.939 619.545 170.648C620.113 170.352 620.759 170.205 621.482 170.205C622.213 170.205 622.857 170.35 623.414 170.642C623.975 170.93 624.412 171.324 624.727 171.824C625.041 172.32 625.198 172.881 625.198 173.506C625.198 173.938 625.117 174.36 624.954 174.773C624.795 175.186 624.516 175.646 624.119 176.153C623.721 176.657 623.168 177.269 622.46 177.989L620.147 180.409V180.494H625.386V182H617.727Z" fill="#050505"/>
<rect x="800" y="144" width="48" height="64" rx="3" fill="#050505" fill-opacity="0.3" stroke="#050505" stroke-opacity="0.3" stroke-width="4" stroke-linecap="round"/>
<path d="M234.5 286.525L216.809 278.312C215.853 277.759 214.5 278.54 214.5 279.645V297.406C214.5 298.51 215.853 299.291 216.809 298.739L234.5 290.525V286.525ZM284 290.525L301.691 298.739C302.647 299.291 304 298.51 304 297.406V279.645C304 278.54 302.647 277.759 301.691 278.312L284 286.525V290.525ZM232.5 288.525V290.525H286V288.525V286.525H232.5V288.525Z" fill="#D64933"/>
<path d="M1205.5 233.833L1223.19 242.047C1224.15 242.599 1225.5 241.818 1225.5 240.714V222.953C1225.5 221.848 1224.15 221.067 1223.19 221.62L1205.5 229.833V233.833ZM1156 229.833L1138.31 221.62C1137.35 221.067 1136 221.848 1136 222.953V240.714C1136 241.818 1137.35 242.599 1138.31 242.047L1156 233.833V229.833ZM1207.5 231.833V229.833H1154V231.833V233.833H1207.5V231.833Z" fill="#D64933"/>
<path d="M234.5 349.127L216.809 340.914C215.853 340.361 214.5 341.142 214.5 342.247V360.008C214.5 361.112 215.853 361.893 216.809 361.341L234.5 353.127V349.127ZM284 353.127L301.691 361.341C302.647 361.893 304 361.112 304 360.008V342.247C304 341.142 302.647 340.361 301.691 340.914L284 349.127V353.127ZM232.5 351.127V353.127H286V351.127V349.127H232.5V351.127Z" fill="#EA9010"/>
<path d="M1205.5 264.479L1223.19 272.693C1224.15 273.245 1225.5 272.464 1225.5 271.359V253.599C1225.5 252.494 1224.15 251.713 1223.19 252.265L1205.5 260.479V264.479ZM1156 260.479L1138.31 252.265C1137.35 251.713 1136 252.494 1136 253.599V271.359C1136 272.464 1137.35 273.245 1138.31 272.693L1156 264.479V260.479ZM1207.5 262.479V260.479H1154V262.479V264.479H1207.5V262.479Z" fill="#050505"/>
<path d="M234.5 255.026L216.809 246.812C215.853 246.26 214.5 247.041 214.5 248.146V265.906C214.5 267.011 215.853 267.792 216.809 267.24L234.5 259.026V255.026ZM284 259.026L301.691 267.24C302.647 267.792 304 267.011 304 265.906V248.146C304 247.041 302.647 246.26 301.691 246.812L284 255.026V259.026ZM232.5 257.026V259.026H286V257.026V255.026H232.5V257.026Z" fill="#050505"/>
<path d="M1205.5 170.193L1223.19 178.407C1224.15 178.959 1225.5 178.178 1225.5 177.074V159.313C1225.5 158.208 1224.15 157.427 1223.19 157.98L1205.5 166.193V170.193ZM1156 166.193L1138.31 157.98C1137.35 157.427 1136 158.208 1136 159.313V177.074C1136 178.178 1137.35 178.959 1138.31 178.407L1156 170.193V166.193ZM1207.5 168.193V166.193H1154V168.193V170.193H1207.5V168.193Z" fill="#EA9010"/>
<rect x="384" y="240" width="96" height="128" rx="6" fill="#FFFBE6"/>
<rect x="384" y="240" width="96" height="128" rx="6" fill="#050505" fill-opacity="0.2"/>
<rect x="384" y="240" width="96" height="128" rx="6" stroke="#050505" stroke-width="4" stroke-linecap="round"/>
<path d="M418.937 290.04C418.827 289.695 418.68 289.386 418.494 289.114C418.312 288.837 418.094 288.602 417.841 288.409C417.587 288.212 417.297 288.062 416.971 287.96C416.649 287.858 416.295 287.807 415.909 287.807C415.253 287.807 414.663 287.975 414.136 288.312C413.61 288.65 413.193 289.144 412.886 289.795C412.583 290.443 412.431 291.237 412.431 292.176C412.431 293.119 412.585 293.917 412.892 294.568C413.199 295.22 413.619 295.714 414.153 296.051C414.687 296.388 415.295 296.557 415.977 296.557C416.61 296.557 417.161 296.428 417.63 296.17C418.104 295.913 418.469 295.549 418.727 295.08C418.988 294.606 419.119 294.049 419.119 293.409L419.574 293.494H416.244V292.045H420.818V293.369C420.818 294.347 420.61 295.195 420.193 295.915C419.78 296.631 419.208 297.184 418.477 297.574C417.75 297.964 416.916 298.159 415.977 298.159C414.924 298.159 414 297.917 413.204 297.432C412.413 296.947 411.795 296.259 411.352 295.369C410.909 294.475 410.687 293.415 410.687 292.188C410.687 291.259 410.816 290.426 411.074 289.688C411.331 288.949 411.693 288.322 412.159 287.807C412.628 287.288 413.18 286.892 413.812 286.619C414.449 286.343 415.144 286.205 415.897 286.205C416.526 286.205 417.111 286.297 417.653 286.483C418.199 286.669 418.683 286.932 419.108 287.273C419.536 287.614 419.89 288.019 420.17 288.489C420.45 288.955 420.64 289.472 420.738 290.04H418.937ZM422.734 298V289.273H424.376V290.659H424.467C424.626 290.189 424.907 289.82 425.308 289.551C425.713 289.278 426.172 289.142 426.683 289.142C426.789 289.142 426.914 289.146 427.058 289.153C427.206 289.161 427.321 289.17 427.405 289.182V290.807C427.336 290.788 427.215 290.767 427.041 290.744C426.867 290.718 426.693 290.705 426.518 290.705C426.117 290.705 425.759 290.79 425.444 290.96C425.134 291.127 424.888 291.36 424.706 291.659C424.524 291.955 424.433 292.292 424.433 292.67V298H422.734ZM432.062 298.176C431.244 298.176 430.53 297.989 429.92 297.614C429.311 297.239 428.837 296.714 428.5 296.04C428.163 295.366 427.994 294.578 427.994 293.676C427.994 292.771 428.163 291.979 428.5 291.301C428.837 290.623 429.311 290.097 429.92 289.722C430.53 289.347 431.244 289.159 432.062 289.159C432.881 289.159 433.595 289.347 434.204 289.722C434.814 290.097 435.288 290.623 435.625 291.301C435.962 291.979 436.131 292.771 436.131 293.676C436.131 294.578 435.962 295.366 435.625 296.04C435.288 296.714 434.814 297.239 434.204 297.614C433.595 297.989 432.881 298.176 432.062 298.176ZM432.068 296.75C432.598 296.75 433.038 296.61 433.386 296.33C433.735 296.049 433.992 295.676 434.159 295.21C434.329 294.744 434.415 294.231 434.415 293.67C434.415 293.114 434.329 292.602 434.159 292.136C433.992 291.667 433.735 291.29 433.386 291.006C433.038 290.722 432.598 290.58 432.068 290.58C431.534 290.58 431.091 290.722 430.739 291.006C430.39 291.29 430.131 291.667 429.96 292.136C429.793 292.602 429.71 293.114 429.71 293.67C429.71 294.231 429.793 294.744 429.96 295.21C430.131 295.676 430.39 296.049 430.739 296.33C431.091 296.61 431.534 296.75 432.068 296.75ZM445.02 289.273L441.855 298H440.037L436.867 289.273H438.69L440.901 295.989H440.992L443.196 289.273H445.02ZM449.905 298.176C449.045 298.176 448.305 297.992 447.683 297.625C447.066 297.254 446.589 296.733 446.252 296.062C445.918 295.388 445.752 294.598 445.752 293.693C445.752 292.799 445.918 292.011 446.252 291.33C446.589 290.648 447.058 290.116 447.661 289.733C448.267 289.35 448.975 289.159 449.786 289.159C450.278 289.159 450.755 289.241 451.218 289.403C451.68 289.566 452.094 289.822 452.462 290.17C452.829 290.519 453.119 290.972 453.331 291.528C453.543 292.081 453.649 292.754 453.649 293.545V294.148H446.712V292.875H451.985C451.985 292.428 451.894 292.032 451.712 291.688C451.53 291.339 451.274 291.064 450.945 290.864C450.619 290.663 450.236 290.562 449.797 290.562C449.32 290.562 448.903 290.68 448.547 290.915C448.195 291.146 447.922 291.449 447.729 291.824C447.54 292.195 447.445 292.598 447.445 293.034V294.028C447.445 294.612 447.547 295.108 447.752 295.517C447.96 295.926 448.25 296.239 448.621 296.455C448.992 296.667 449.426 296.773 449.922 296.773C450.244 296.773 450.538 296.727 450.803 296.636C451.068 296.542 451.297 296.402 451.49 296.216C451.683 296.03 451.831 295.801 451.933 295.528L453.541 295.818C453.413 296.292 453.182 296.706 452.848 297.062C452.519 297.415 452.104 297.689 451.604 297.886C451.108 298.08 450.541 298.176 449.905 298.176ZM398.546 322.176C397.701 322.176 396.974 321.985 396.364 321.602C395.758 321.216 395.292 320.684 394.966 320.006C394.64 319.328 394.477 318.551 394.477 317.676C394.477 316.79 394.644 316.008 394.977 315.33C395.311 314.648 395.78 314.116 396.387 313.733C396.993 313.35 397.707 313.159 398.529 313.159C399.191 313.159 399.782 313.282 400.301 313.528C400.82 313.771 401.239 314.112 401.557 314.551C401.879 314.991 402.07 315.504 402.131 316.091H400.477C400.387 315.682 400.178 315.33 399.852 315.034C399.53 314.739 399.099 314.591 398.557 314.591C398.083 314.591 397.669 314.716 397.313 314.966C396.96 315.212 396.686 315.564 396.489 316.023C396.292 316.477 396.193 317.015 396.193 317.636C396.193 318.273 396.29 318.822 396.483 319.284C396.676 319.746 396.949 320.104 397.301 320.358C397.657 320.612 398.076 320.739 398.557 320.739C398.879 320.739 399.171 320.68 399.432 320.562C399.697 320.441 399.919 320.269 400.097 320.045C400.279 319.822 400.405 319.553 400.477 319.239H402.131C402.07 319.803 401.887 320.307 401.58 320.75C401.273 321.193 400.862 321.542 400.347 321.795C399.835 322.049 399.235 322.176 398.546 322.176ZM407.448 322.176C406.63 322.176 405.916 321.989 405.306 321.614C404.696 321.239 404.222 320.714 403.885 320.04C403.548 319.366 403.38 318.578 403.38 317.676C403.38 316.771 403.548 315.979 403.885 315.301C404.222 314.623 404.696 314.097 405.306 313.722C405.916 313.347 406.63 313.159 407.448 313.159C408.266 313.159 408.98 313.347 409.59 313.722C410.2 314.097 410.673 314.623 411.01 315.301C411.347 315.979 411.516 316.771 411.516 317.676C411.516 318.578 411.347 319.366 411.01 320.04C410.673 320.714 410.2 321.239 409.59 321.614C408.98 321.989 408.266 322.176 407.448 322.176ZM407.453 320.75C407.984 320.75 408.423 320.61 408.772 320.33C409.12 320.049 409.378 319.676 409.544 319.21C409.715 318.744 409.8 318.231 409.8 317.67C409.8 317.114 409.715 316.602 409.544 316.136C409.378 315.667 409.12 315.29 408.772 315.006C408.423 314.722 407.984 314.58 407.453 314.58C406.919 314.58 406.476 314.722 406.124 315.006C405.775 315.29 405.516 315.667 405.345 316.136C405.179 316.602 405.095 317.114 405.095 317.67C405.095 318.231 405.179 318.744 405.345 319.21C405.516 319.676 405.775 320.049 406.124 320.33C406.476 320.61 406.919 320.75 407.453 320.75ZM414.935 316.818V322H413.236V313.273H414.867V314.693H414.975C415.176 314.231 415.49 313.86 415.918 313.58C416.35 313.299 416.893 313.159 417.549 313.159C418.143 313.159 418.664 313.284 419.111 313.534C419.558 313.78 419.905 314.148 420.151 314.636C420.397 315.125 420.52 315.729 420.52 316.449V322H418.821V316.653C418.821 316.021 418.657 315.527 418.327 315.17C417.998 314.811 417.545 314.631 416.969 314.631C416.575 314.631 416.225 314.716 415.918 314.886C415.615 315.057 415.374 315.307 415.196 315.636C415.022 315.962 414.935 316.356 414.935 316.818ZM424.322 316.818V322H422.623V313.273H424.253V314.693H424.361C424.562 314.231 424.877 313.86 425.305 313.58C425.736 313.299 426.28 313.159 426.935 313.159C427.53 313.159 428.051 313.284 428.498 313.534C428.945 313.78 429.291 314.148 429.538 314.636C429.784 315.125 429.907 315.729 429.907 316.449V322H428.208V316.653C428.208 316.021 428.043 315.527 427.714 315.17C427.384 314.811 426.931 314.631 426.356 314.631C425.962 314.631 425.611 314.716 425.305 314.886C425.002 315.057 424.761 315.307 424.583 315.636C424.409 315.962 424.322 316.356 424.322 316.818ZM435.771 322.176C434.911 322.176 434.17 321.992 433.549 321.625C432.932 321.254 432.454 320.733 432.117 320.062C431.784 319.388 431.617 318.598 431.617 317.693C431.617 316.799 431.784 316.011 432.117 315.33C432.454 314.648 432.924 314.116 433.526 313.733C434.132 313.35 434.841 313.159 435.651 313.159C436.144 313.159 436.621 313.241 437.083 313.403C437.545 313.566 437.96 313.822 438.327 314.17C438.695 314.519 438.985 314.972 439.197 315.528C439.409 316.081 439.515 316.754 439.515 317.545V318.148H432.577V316.875H437.85C437.85 316.428 437.759 316.032 437.577 315.688C437.396 315.339 437.14 315.064 436.81 314.864C436.485 314.663 436.102 314.562 435.663 314.562C435.185 314.562 434.769 314.68 434.413 314.915C434.06 315.146 433.788 315.449 433.594 315.824C433.405 316.195 433.31 316.598 433.31 317.034V318.028C433.31 318.612 433.413 319.108 433.617 319.517C433.826 319.926 434.115 320.239 434.487 320.455C434.858 320.667 435.291 320.773 435.788 320.773C436.11 320.773 436.403 320.727 436.668 320.636C436.933 320.542 437.163 320.402 437.356 320.216C437.549 320.03 437.697 319.801 437.799 319.528L439.407 319.818C439.278 320.292 439.047 320.706 438.714 321.062C438.384 321.415 437.969 321.689 437.469 321.886C436.973 322.08 436.407 322.176 435.771 322.176ZM444.9 322.176C444.055 322.176 443.328 321.985 442.718 321.602C442.112 321.216 441.646 320.684 441.32 320.006C440.995 319.328 440.832 318.551 440.832 317.676C440.832 316.79 440.998 316.008 441.332 315.33C441.665 314.648 442.135 314.116 442.741 313.733C443.347 313.35 444.061 313.159 444.883 313.159C445.546 313.159 446.137 313.282 446.656 313.528C447.175 313.771 447.593 314.112 447.911 314.551C448.233 314.991 448.425 315.504 448.485 316.091H446.832C446.741 315.682 446.533 315.33 446.207 315.034C445.885 314.739 445.453 314.591 444.911 314.591C444.438 314.591 444.023 314.716 443.667 314.966C443.315 315.212 443.04 315.564 442.843 316.023C442.646 316.477 442.548 317.015 442.548 317.636C442.548 318.273 442.644 318.822 442.837 319.284C443.031 319.746 443.303 320.104 443.656 320.358C444.012 320.612 444.43 320.739 444.911 320.739C445.233 320.739 445.525 320.68 445.786 320.562C446.052 320.441 446.273 320.269 446.451 320.045C446.633 319.822 446.76 319.553 446.832 319.239H448.485C448.425 319.803 448.241 320.307 447.934 320.75C447.627 321.193 447.216 321.542 446.701 321.795C446.19 322.049 445.589 322.176 444.9 322.176ZM454.2 313.273V314.636H449.433V313.273H454.2ZM450.711 311.182H452.41V319.438C452.41 319.767 452.459 320.015 452.558 320.182C452.656 320.345 452.783 320.456 452.938 320.517C453.098 320.574 453.27 320.602 453.456 320.602C453.592 320.602 453.711 320.593 453.813 320.574C453.916 320.555 453.995 320.54 454.052 320.528L454.359 321.932C454.26 321.97 454.12 322.008 453.938 322.045C453.757 322.087 453.529 322.11 453.257 322.114C452.81 322.121 452.393 322.042 452.007 321.875C451.62 321.708 451.308 321.451 451.069 321.102C450.831 320.754 450.711 320.316 450.711 319.79V311.182ZM459.485 322.176C458.667 322.176 457.953 321.989 457.343 321.614C456.734 321.239 456.26 320.714 455.923 320.04C455.586 319.366 455.417 318.578 455.417 317.676C455.417 316.771 455.586 315.979 455.923 315.301C456.26 314.623 456.734 314.097 457.343 313.722C457.953 313.347 458.667 313.159 459.485 313.159C460.304 313.159 461.018 313.347 461.628 313.722C462.237 314.097 462.711 314.623 463.048 315.301C463.385 315.979 463.554 316.771 463.554 317.676C463.554 318.578 463.385 319.366 463.048 320.04C462.711 320.714 462.237 321.239 461.628 321.614C461.018 321.989 460.304 322.176 459.485 322.176ZM459.491 320.75C460.021 320.75 460.461 320.61 460.809 320.33C461.158 320.049 461.415 319.676 461.582 319.21C461.753 318.744 461.838 318.231 461.838 317.67C461.838 317.114 461.753 316.602 461.582 316.136C461.415 315.667 461.158 315.29 460.809 315.006C460.461 314.722 460.021 314.58 459.491 314.58C458.957 314.58 458.514 314.722 458.162 315.006C457.813 315.29 457.554 315.667 457.383 316.136C457.217 316.602 457.133 317.114 457.133 317.67C457.133 318.231 457.217 318.744 457.383 319.21C457.554 319.676 457.813 320.049 458.162 320.33C458.514 320.61 458.957 320.75 459.491 320.75ZM465.274 322V313.273H466.916V314.659H467.007C467.166 314.189 467.446 313.82 467.848 313.551C468.253 313.278 468.711 313.142 469.223 313.142C469.329 313.142 469.454 313.146 469.598 313.153C469.746 313.161 469.861 313.17 469.944 313.182V314.807C469.876 314.788 469.755 314.767 469.581 314.744C469.407 314.718 469.232 314.705 469.058 314.705C468.657 314.705 468.299 314.79 467.984 314.96C467.674 315.127 467.427 315.36 467.246 315.659C467.064 315.955 466.973 316.292 466.973 316.67V322H465.274Z" fill="#050505"/>
<rect x="960" y="152" width="96" height="128" rx="6" fill="#FFFBE6"/>
<rect x="960" y="152" width="96" height="128" rx="6" fill="#050505" fill-opacity="0.2"/>
<rect x="960" y="152" width="96" height="128" rx="6" stroke="#050505" stroke-width="4" stroke-linecap="round"/>
<path d="M994.937 202.04C994.827 201.695 994.68 201.386 994.494 201.114C994.312 200.837 994.094 200.602 993.841 200.409C993.587 200.212 993.297 200.062 992.971 199.96C992.649 199.858 992.295 199.807 991.909 199.807C991.253 199.807 990.663 199.975 990.136 200.312C989.61 200.65 989.193 201.144 988.886 201.795C988.583 202.443 988.431 203.237 988.431 204.176C988.431 205.119 988.585 205.917 988.892 206.568C989.199 207.22 989.619 207.714 990.153 208.051C990.687 208.388 991.295 208.557 991.977 208.557C992.61 208.557 993.161 208.428 993.63 208.17C994.104 207.913 994.469 207.549 994.727 207.08C994.988 206.606 995.119 206.049 995.119 205.409L995.574 205.494H992.244V204.045H996.818V205.369C996.818 206.347 996.61 207.195 996.193 207.915C995.78 208.631 995.208 209.184 994.477 209.574C993.75 209.964 992.916 210.159 991.977 210.159C990.924 210.159 990 209.917 989.204 209.432C988.413 208.947 987.795 208.259 987.352 207.369C986.909 206.475 986.687 205.415 986.687 204.188C986.687 203.259 986.816 202.426 987.074 201.688C987.331 200.949 987.693 200.322 988.159 199.807C988.628 199.288 989.18 198.892 989.812 198.619C990.449 198.343 991.144 198.205 991.897 198.205C992.526 198.205 993.111 198.297 993.653 198.483C994.199 198.669 994.683 198.932 995.108 199.273C995.536 199.614 995.89 200.019 996.17 200.489C996.45 200.955 996.64 201.472 996.738 202.04H994.937ZM998.734 210V201.273H1000.38V202.659H1000.47C1000.63 202.189 1000.91 201.82 1001.31 201.551C1001.71 201.278 1002.17 201.142 1002.68 201.142C1002.79 201.142 1002.91 201.146 1003.06 201.153C1003.21 201.161 1003.32 201.17 1003.4 201.182V202.807C1003.34 202.788 1003.22 202.767 1003.04 202.744C1002.87 202.718 1002.69 202.705 1002.52 202.705C1002.12 202.705 1001.76 202.79 1001.44 202.96C1001.13 203.127 1000.89 203.36 1000.71 203.659C1000.52 203.955 1000.43 204.292 1000.43 204.67V210H998.734ZM1008.06 210.176C1007.24 210.176 1006.53 209.989 1005.92 209.614C1005.31 209.239 1004.84 208.714 1004.5 208.04C1004.16 207.366 1003.99 206.578 1003.99 205.676C1003.99 204.771 1004.16 203.979 1004.5 203.301C1004.84 202.623 1005.31 202.097 1005.92 201.722C1006.53 201.347 1007.24 201.159 1008.06 201.159C1008.88 201.159 1009.59 201.347 1010.2 201.722C1010.81 202.097 1011.29 202.623 1011.62 203.301C1011.96 203.979 1012.13 204.771 1012.13 205.676C1012.13 206.578 1011.96 207.366 1011.62 208.04C1011.29 208.714 1010.81 209.239 1010.2 209.614C1009.59 209.989 1008.88 210.176 1008.06 210.176ZM1008.07 208.75C1008.6 208.75 1009.04 208.61 1009.39 208.33C1009.73 208.049 1009.99 207.676 1010.16 207.21C1010.33 206.744 1010.41 206.231 1010.41 205.67C1010.41 205.114 1010.33 204.602 1010.16 204.136C1009.99 203.667 1009.73 203.29 1009.39 203.006C1009.04 202.722 1008.6 202.58 1008.07 202.58C1007.53 202.58 1007.09 202.722 1006.74 203.006C1006.39 203.29 1006.13 203.667 1005.96 204.136C1005.79 204.602 1005.71 205.114 1005.71 205.67C1005.71 206.231 1005.79 206.744 1005.96 207.21C1006.13 207.676 1006.39 208.049 1006.74 208.33C1007.09 208.61 1007.53 208.75 1008.07 208.75ZM1021.02 201.273L1017.86 210H1016.04L1012.87 201.273H1014.69L1016.9 207.989H1016.99L1019.2 201.273H1021.02ZM1025.91 210.176C1025.05 210.176 1024.3 209.992 1023.68 209.625C1023.07 209.254 1022.59 208.733 1022.25 208.062C1021.92 207.388 1021.75 206.598 1021.75 205.693C1021.75 204.799 1021.92 204.011 1022.25 203.33C1022.59 202.648 1023.06 202.116 1023.66 201.733C1024.27 201.35 1024.98 201.159 1025.79 201.159C1026.28 201.159 1026.76 201.241 1027.22 201.403C1027.68 201.566 1028.09 201.822 1028.46 202.17C1028.83 202.519 1029.12 202.972 1029.33 203.528C1029.54 204.081 1029.65 204.754 1029.65 205.545V206.148H1022.71V204.875H1027.98C1027.98 204.428 1027.89 204.032 1027.71 203.688C1027.53 203.339 1027.27 203.064 1026.94 202.864C1026.62 202.663 1026.24 202.562 1025.8 202.562C1025.32 202.562 1024.9 202.68 1024.55 202.915C1024.19 203.146 1023.92 203.449 1023.73 203.824C1023.54 204.195 1023.44 204.598 1023.44 205.034V206.028C1023.44 206.612 1023.55 207.108 1023.75 207.517C1023.96 207.926 1024.25 208.239 1024.62 208.455C1024.99 208.667 1025.43 208.773 1025.92 208.773C1026.24 208.773 1026.54 208.727 1026.8 208.636C1027.07 208.542 1027.3 208.402 1027.49 208.216C1027.68 208.03 1027.83 207.801 1027.93 207.528L1029.54 207.818C1029.41 208.292 1029.18 208.706 1028.85 209.062C1028.52 209.415 1028.1 209.689 1027.6 209.886C1027.11 210.08 1026.54 210.176 1025.91 210.176ZM974.546 234.176C973.701 234.176 972.974 233.985 972.364 233.602C971.758 233.216 971.292 232.684 970.966 232.006C970.64 231.328 970.477 230.551 970.477 229.676C970.477 228.79 970.644 228.008 970.977 227.33C971.311 226.648 971.78 226.116 972.387 225.733C972.993 225.35 973.707 225.159 974.529 225.159C975.191 225.159 975.782 225.282 976.301 225.528C976.82 225.771 977.239 226.112 977.557 226.551C977.879 226.991 978.07 227.504 978.131 228.091H976.477C976.387 227.682 976.178 227.33 975.852 227.034C975.53 226.739 975.099 226.591 974.557 226.591C974.083 226.591 973.669 226.716 973.313 226.966C972.96 227.212 972.686 227.564 972.489 228.023C972.292 228.477 972.193 229.015 972.193 229.636C972.193 230.273 972.29 230.822 972.483 231.284C972.676 231.746 972.949 232.104 973.301 232.358C973.657 232.612 974.076 232.739 974.557 232.739C974.879 232.739 975.171 232.68 975.432 232.562C975.697 232.441 975.919 232.269 976.097 232.045C976.279 231.822 976.405 231.553 976.477 231.239H978.131C978.07 231.803 977.887 232.307 977.58 232.75C977.273 233.193 976.862 233.542 976.347 233.795C975.835 234.049 975.235 234.176 974.546 234.176ZM983.448 234.176C982.63 234.176 981.916 233.989 981.306 233.614C980.696 233.239 980.222 232.714 979.885 232.04C979.548 231.366 979.38 230.578 979.38 229.676C979.38 228.771 979.548 227.979 979.885 227.301C980.222 226.623 980.696 226.097 981.306 225.722C981.916 225.347 982.63 225.159 983.448 225.159C984.266 225.159 984.98 225.347 985.59 225.722C986.2 226.097 986.673 226.623 987.01 227.301C987.347 227.979 987.516 228.771 987.516 229.676C987.516 230.578 987.347 231.366 987.01 232.04C986.673 232.714 986.2 233.239 985.59 233.614C984.98 233.989 984.266 234.176 983.448 234.176ZM983.453 232.75C983.984 232.75 984.423 232.61 984.772 232.33C985.12 232.049 985.378 231.676 985.544 231.21C985.715 230.744 985.8 230.231 985.8 229.67C985.8 229.114 985.715 228.602 985.544 228.136C985.378 227.667 985.12 227.29 984.772 227.006C984.423 226.722 983.984 226.58 983.453 226.58C982.919 226.58 982.476 226.722 982.124 227.006C981.775 227.29 981.516 227.667 981.345 228.136C981.179 228.602 981.095 229.114 981.095 229.67C981.095 230.231 981.179 230.744 981.345 231.21C981.516 231.676 981.775 232.049 982.124 232.33C982.476 232.61 982.919 232.75 983.453 232.75ZM990.935 228.818V234H989.236V225.273H990.867V226.693H990.975C991.176 226.231 991.49 225.86 991.918 225.58C992.35 225.299 992.893 225.159 993.549 225.159C994.143 225.159 994.664 225.284 995.111 225.534C995.558 225.78 995.905 226.148 996.151 226.636C996.397 227.125 996.52 227.729 996.52 228.449V234H994.821V228.653C994.821 228.021 994.657 227.527 994.327 227.17C993.998 226.811 993.545 226.631 992.969 226.631C992.575 226.631 992.225 226.716 991.918 226.886C991.615 227.057 991.374 227.307 991.196 227.636C991.022 227.962 990.935 228.356 990.935 228.818ZM1000.32 228.818V234H998.623V225.273H1000.25V226.693H1000.36C1000.56 226.231 1000.88 225.86 1001.3 225.58C1001.74 225.299 1002.28 225.159 1002.94 225.159C1003.53 225.159 1004.05 225.284 1004.5 225.534C1004.94 225.78 1005.29 226.148 1005.54 226.636C1005.78 227.125 1005.91 227.729 1005.91 228.449V234H1004.21V228.653C1004.21 228.021 1004.04 227.527 1003.71 227.17C1003.38 226.811 1002.93 226.631 1002.36 226.631C1001.96 226.631 1001.61 226.716 1001.3 226.886C1001 227.057 1000.76 227.307 1000.58 227.636C1000.41 227.962 1000.32 228.356 1000.32 228.818ZM1011.77 234.176C1010.91 234.176 1010.17 233.992 1009.55 233.625C1008.93 233.254 1008.45 232.733 1008.12 232.062C1007.78 231.388 1007.62 230.598 1007.62 229.693C1007.62 228.799 1007.78 228.011 1008.12 227.33C1008.45 226.648 1008.92 226.116 1009.53 225.733C1010.13 225.35 1010.84 225.159 1011.65 225.159C1012.14 225.159 1012.62 225.241 1013.08 225.403C1013.55 225.566 1013.96 225.822 1014.33 226.17C1014.69 226.519 1014.98 226.972 1015.2 227.528C1015.41 228.081 1015.51 228.754 1015.51 229.545V230.148H1008.58V228.875H1013.85C1013.85 228.428 1013.76 228.032 1013.58 227.688C1013.4 227.339 1013.14 227.064 1012.81 226.864C1012.48 226.663 1012.1 226.562 1011.66 226.562C1011.19 226.562 1010.77 226.68 1010.41 226.915C1010.06 227.146 1009.79 227.449 1009.59 227.824C1009.41 228.195 1009.31 228.598 1009.31 229.034V230.028C1009.31 230.612 1009.41 231.108 1009.62 231.517C1009.83 231.926 1010.12 232.239 1010.49 232.455C1010.86 232.667 1011.29 232.773 1011.79 232.773C1012.11 232.773 1012.4 232.727 1012.67 232.636C1012.93 232.542 1013.16 232.402 1013.36 232.216C1013.55 232.03 1013.7 231.801 1013.8 231.528L1015.41 231.818C1015.28 232.292 1015.05 232.706 1014.71 233.062C1014.38 233.415 1013.97 233.689 1013.47 233.886C1012.97 234.08 1012.41 234.176 1011.77 234.176ZM1020.9 234.176C1020.06 234.176 1019.33 233.985 1018.72 233.602C1018.11 233.216 1017.65 232.684 1017.32 232.006C1016.99 231.328 1016.83 230.551 1016.83 229.676C1016.83 228.79 1017 228.008 1017.33 227.33C1017.67 226.648 1018.13 226.116 1018.74 225.733C1019.35 225.35 1020.06 225.159 1020.88 225.159C1021.55 225.159 1022.14 225.282 1022.66 225.528C1023.17 225.771 1023.59 226.112 1023.91 226.551C1024.23 226.991 1024.42 227.504 1024.49 228.091H1022.83C1022.74 227.682 1022.53 227.33 1022.21 227.034C1021.88 226.739 1021.45 226.591 1020.91 226.591C1020.44 226.591 1020.02 226.716 1019.67 226.966C1019.31 227.212 1019.04 227.564 1018.84 228.023C1018.65 228.477 1018.55 229.015 1018.55 229.636C1018.55 230.273 1018.64 230.822 1018.84 231.284C1019.03 231.746 1019.3 232.104 1019.66 232.358C1020.01 232.612 1020.43 232.739 1020.91 232.739C1021.23 232.739 1021.52 232.68 1021.79 232.562C1022.05 232.441 1022.27 232.269 1022.45 232.045C1022.63 231.822 1022.76 231.553 1022.83 231.239H1024.49C1024.42 231.803 1024.24 232.307 1023.93 232.75C1023.63 233.193 1023.22 233.542 1022.7 233.795C1022.19 234.049 1021.59 234.176 1020.9 234.176ZM1030.2 225.273V226.636H1025.43V225.273H1030.2ZM1026.71 223.182H1028.41V231.438C1028.41 231.767 1028.46 232.015 1028.56 232.182C1028.66 232.345 1028.78 232.456 1028.94 232.517C1029.1 232.574 1029.27 232.602 1029.46 232.602C1029.59 232.602 1029.71 232.593 1029.81 232.574C1029.92 232.555 1030 232.54 1030.05 232.528L1030.36 233.932C1030.26 233.97 1030.12 234.008 1029.94 234.045C1029.76 234.087 1029.53 234.11 1029.26 234.114C1028.81 234.121 1028.39 234.042 1028.01 233.875C1027.62 233.708 1027.31 233.451 1027.07 233.102C1026.83 232.754 1026.71 232.316 1026.71 231.79V223.182ZM1035.49 234.176C1034.67 234.176 1033.95 233.989 1033.34 233.614C1032.73 233.239 1032.26 232.714 1031.92 232.04C1031.59 231.366 1031.42 230.578 1031.42 229.676C1031.42 228.771 1031.59 227.979 1031.92 227.301C1032.26 226.623 1032.73 226.097 1033.34 225.722C1033.95 225.347 1034.67 225.159 1035.49 225.159C1036.3 225.159 1037.02 225.347 1037.63 225.722C1038.24 226.097 1038.71 226.623 1039.05 227.301C1039.39 227.979 1039.55 228.771 1039.55 229.676C1039.55 230.578 1039.39 231.366 1039.05 232.04C1038.71 232.714 1038.24 233.239 1037.63 233.614C1037.02 233.989 1036.3 234.176 1035.49 234.176ZM1035.49 232.75C1036.02 232.75 1036.46 232.61 1036.81 232.33C1037.16 232.049 1037.42 231.676 1037.58 231.21C1037.75 230.744 1037.84 230.231 1037.84 229.67C1037.84 229.114 1037.75 228.602 1037.58 228.136C1037.42 227.667 1037.16 227.29 1036.81 227.006C1036.46 226.722 1036.02 226.58 1035.49 226.58C1034.96 226.58 1034.51 226.722 1034.16 227.006C1033.81 227.29 1033.55 227.667 1033.38 228.136C1033.22 228.602 1033.13 229.114 1033.13 229.67C1033.13 230.231 1033.22 230.744 1033.38 231.21C1033.55 231.676 1033.81 232.049 1034.16 232.33C1034.51 232.61 1034.96 232.75 1035.49 232.75ZM1041.27 234V225.273H1042.92V226.659H1043.01C1043.17 226.189 1043.45 225.82 1043.85 225.551C1044.25 225.278 1044.71 225.142 1045.22 225.142C1045.33 225.142 1045.45 225.146 1045.6 225.153C1045.75 225.161 1045.86 225.17 1045.94 225.182V226.807C1045.88 226.788 1045.76 226.767 1045.58 226.744C1045.41 226.718 1045.23 226.705 1045.06 226.705C1044.66 226.705 1044.3 226.79 1043.98 226.96C1043.67 227.127 1043.43 227.36 1043.25 227.659C1043.06 227.955 1042.97 228.292 1042.97 228.67V234H1041.27Z" fill="#050505"/>
<g opacity="0.2">
<path d="M324 311.507C324 310.403 322.647 309.622 321.691 310.174L306.309 319.054C305.353 319.607 305.353 321.169 306.309 321.721L321.691 330.601C322.647 331.154 324 330.373 324 329.268V311.507ZM376 322.388C377.105 322.388 378 321.492 378 320.388C378 319.283 377.105 318.388 376 318.388V322.388ZM322 320.388V322.388H376V320.388V318.388H322V320.388Z" fill="#050505"/>
</g>
<path d="M1116 240.88C1116 241.985 1117.35 242.766 1118.31 242.214L1133.69 233.333C1134.65 232.781 1134.65 231.219 1133.69 230.667L1118.31 221.786C1117.35 221.234 1116 222.015 1116 223.12V240.88ZM1064 230C1062.9 230 1062 230.895 1062 232C1062 233.105 1062.9 234 1064 234V230ZM1118 232V230H1064V232V234H1118V232Z" fill="#D64933"/>
<path d="M324 279.12C324 278.015 322.647 277.234 321.691 277.786L306.309 286.667C305.353 287.219 305.353 288.781 306.309 289.333L321.691 298.214C322.647 298.766 324 297.985 324 296.88V279.12ZM376 290C377.105 290 378 289.105 378 288C378 286.895 377.105 286 376 286V290ZM322 288V290H376V288V286H322V288Z" fill="#D64933"/>
<g opacity="0.2">
<path d="M1116 207.711C1116 208.816 1117.35 209.597 1118.31 209.044L1133.69 200.164C1134.65 199.612 1134.65 198.05 1133.69 197.497L1118.31 188.617C1117.35 188.065 1116 188.846 1116 189.95V207.711ZM1064 196.831C1062.9 196.831 1062 197.726 1062 198.831C1062 199.935 1062.9 200.831 1064 200.831V196.831ZM1118 198.831V196.831H1064V198.831V200.831H1118V198.831Z" fill="#050505"/>
</g>
<path d="M324 246.869C324 245.765 322.647 244.984 321.691 245.536L306.309 254.416C305.353 254.968 305.353 256.531 306.309 257.083L321.691 265.963C322.647 266.515 324 265.734 324 264.63L324 246.869ZM376 257.75C377.105 257.75 378 256.854 378 255.75C378 254.645 377.105 253.75 376 253.75L376 257.75ZM322 255.75L322 257.75L376 257.75L376 255.75L376 253.75L322 253.75L322 255.75Z" fill="#050505"/>
<path d="M1116 176.928C1116 178.033 1117.35 178.814 1118.31 178.262L1133.69 169.381C1134.65 168.829 1134.65 167.267 1133.69 166.715L1118.31 157.834C1117.35 157.282 1116 158.063 1116 159.168V176.928ZM1064 166.048C1062.9 166.048 1062 166.943 1062 168.048C1062 169.153 1062.9 170.048 1064 170.048V166.048ZM1118 168.048V166.048H1064V168.048V170.048H1118V168.048Z" fill="#EA9010"/>
<path d="M488 302C486.895 302 486 302.895 486 304C486 305.105 486.895 306 488 306V302ZM584.914 177.414C585.695 176.633 585.695 175.367 584.914 174.586L572.186 161.858C571.405 161.077 570.139 161.077 569.358 161.858C568.577 162.639 568.577 163.905 569.358 164.686L580.672 176L569.358 187.314C568.577 188.095 568.577 189.361 569.358 190.142C570.139 190.923 571.405 190.923 572.186 190.142L584.914 177.414ZM488 304V306H512V304V302H488V304ZM536 280H538V200H536H534V280H536ZM560 176V178H583.5V176V174H560V176ZM536 200H538C538 187.85 547.85 178 560 178V176V174C545.641 174 534 185.641 534 200H536ZM512 304V306C526.359 306 538 294.359 538 280H536H534C534 292.15 524.15 302 512 302V304Z" fill="#050505"/>
<path d="M376 353.957C377.105 353.957 378 353.061 378 351.957C378 350.852 377.105 349.957 376 349.957V353.957ZM324 343.076C324 341.972 322.647 341.191 321.691 341.743L306.309 350.623C305.353 351.176 305.353 352.738 306.309 353.29L321.691 362.17C322.647 362.723 324 361.942 324 360.837V343.076ZM376 351.957V349.957H322V351.957V353.957H376V351.957Z" fill="#EA9010"/>
<path d="M1064 259.287C1062.9 259.287 1062 260.182 1062 261.287C1062 262.392 1062.9 263.287 1064 263.287V259.287ZM1116 270.167C1116 271.272 1117.35 272.053 1118.31 271.501L1133.69 262.62C1134.65 262.068 1134.65 260.506 1133.69 259.954L1118.31 251.073C1117.35 250.521 1116 251.302 1116 252.407V270.167ZM1064 261.287V263.287H1118V261.287V259.287H1064V261.287Z" fill="#050505"/>
<path d="M488 94C486.895 94 486 94.8954 486 96C486 97.1046 486.895 98 488 98V94ZM584.914 97.4142C585.695 96.6332 585.695 95.3668 584.914 94.5858L572.186 81.8579C571.405 81.0768 570.139 81.0768 569.358 81.8579C568.577 82.6389 568.577 83.9052 569.358 84.6863L580.672 96L569.358 107.314C568.577 108.095 568.577 109.361 569.358 110.142C570.139 110.923 571.405 110.923 572.186 110.142L584.914 97.4142ZM488 96V98H583.5V96V94H488V96Z" fill="#050505"/>
<path d="M952 218C953.105 218 954 217.105 954 216C954 214.895 953.105 214 952 214V218ZM855.086 94.5858C854.305 95.3668 854.305 96.6332 855.086 97.4142L867.814 110.142C868.595 110.923 869.861 110.923 870.642 110.142C871.423 109.361 871.423 108.095 870.642 107.314L859.328 96L870.642 84.6863C871.423 83.9052 871.423 82.6389 870.642 81.8579C869.861 81.0768 868.595 81.0768 867.814 81.8579L855.086 94.5858ZM952 216V214H928V216V218H952V216ZM904 192H906V120H904H902V192H904ZM880 96V94H856.5V96V98H880V96ZM904 120H906C906 105.641 894.359 94 880 94V96V98C892.15 98 902 107.85 902 120H904ZM928 216V214C915.85 214 906 204.15 906 192H904H902C902 206.359 913.641 218 928 218V216Z" fill="#050505"/>
</svg>
